<svg width="86" height="86" viewBox="0 0 86 86" fill="none" xmlns="http://www.w3.org/2000/svg">
<rect width="86" height="86" rx="43" fill="#C4C4C4"/>
<path d="M39.2273 50.1506V49.7159C39.2358 48.2244 39.3679 47.0355 39.6236 46.1491C39.8878 45.2628 40.2713 44.5469 40.7741 44.0014C41.277 43.456 41.8821 42.9616 42.5895 42.5185C43.1179 42.1776 43.5909 41.8239 44.0085 41.4574C44.4261 41.0909 44.7585 40.6861 45.0057 40.2429C45.2528 39.7912 45.3764 39.2884 45.3764 38.7344C45.3764 38.1463 45.2358 37.6307 44.9545 37.1875C44.6733 36.7443 44.294 36.4034 43.8168 36.1648C43.348 35.9261 42.8281 35.8068 42.2571 35.8068C41.7031 35.8068 41.179 35.9304 40.6847 36.1776C40.1903 36.4162 39.7855 36.7741 39.4702 37.2514C39.1548 37.7202 38.9844 38.304 38.9588 39.0028H33.7429C33.7855 37.2983 34.1946 35.892 34.9702 34.7841C35.7457 33.6676 36.7727 32.8366 38.0511 32.2912C39.3295 31.7372 40.7401 31.4602 42.2827 31.4602C43.9787 31.4602 45.4787 31.7415 46.7827 32.304C48.0866 32.858 49.1094 33.6634 49.8509 34.7202C50.5923 35.777 50.9631 37.0511 50.9631 38.5426C50.9631 39.5398 50.7969 40.4261 50.4645 41.2017C50.1406 41.9687 49.6847 42.6506 49.0966 43.2472C48.5085 43.8352 47.8139 44.3679 47.0128 44.8452C46.3395 45.2457 45.7855 45.6634 45.3509 46.098C44.9247 46.5327 44.6051 47.0355 44.392 47.6065C44.1875 48.1776 44.081 48.8807 44.0724 49.7159V50.1506H39.2273ZM41.7585 58.3324C40.9062 58.3324 40.1776 58.0341 39.5724 57.4375C38.9759 56.8324 38.6818 56.108 38.6903 55.2642C38.6818 54.429 38.9759 53.7131 39.5724 53.1165C40.1776 52.5199 40.9062 52.2216 41.7585 52.2216C42.5682 52.2216 43.2798 52.5199 43.8935 53.1165C44.5071 53.7131 44.8182 54.429 44.8267 55.2642C44.8182 55.8267 44.669 56.3423 44.3793 56.8111C44.098 57.2713 43.7273 57.642 43.267 57.9233C42.8068 58.196 42.304 58.3324 41.7585 58.3324Z" fill="black"/>
</svg>
