<svg width="16" height="14" viewBox="0 0 16 14" fill="none" xmlns="http://www.w3.org/2000/svg">
<path d="M14.875 1.38128C14.875 1.38128 13.6138 2.12628 12.9125 2.33753C12.5361 1.90473 12.0358 1.59797 11.4794 1.45874C10.923 1.31951 10.3372 1.35453 9.8013 1.55907C9.26542 1.7636 8.80528 2.12779 8.48311 2.60236C8.16095 3.07693 7.99231 3.63899 8 4.21253V4.83753C6.90165 4.86602 5.8133 4.62242 4.83188 4.12844C3.85046 3.63446 3.00645 2.90543 2.375 2.00628C2.375 2.00628 -0.125 7.63128 5.5 10.1313C4.21283 11.005 2.67947 11.4431 1.125 11.3813C6.75 14.5063 13.625 11.3813 13.625 4.19379C13.625 4.02004 13.6075 3.84628 13.575 3.67503C14.2125 3.04628 14.875 1.38128 14.875 1.38128Z" stroke="white" stroke-width="1.125" stroke-linecap="round" stroke-linejoin="round"/>
</svg>
