<svg width="18" height="22" viewBox="0 0 18 22" fill="none" xmlns="http://www.w3.org/2000/svg">
<path d="M13.3125 4.48116C12.1536 3.1435 10.8521 1.93635 9.43125 0.881162C9.30445 0.793678 9.15405 0.746826 9 0.746826C8.84595 0.746826 8.69555 0.793678 8.56875 0.881162C7.14786 1.93635 5.8464 3.1435 4.6875 4.48116C2.10938 7.43429 0.75 10.5562 0.75 13.4999C0.75 15.6879 1.61919 17.7864 3.16637 19.3335C4.71354 20.8807 6.81196 21.7499 9 21.7499C11.188 21.7499 13.2865 20.8807 14.8336 19.3335C16.3808 17.7864 17.25 15.6879 17.25 13.4999C17.25 10.5562 15.8906 7.43429 13.3125 4.48116ZM14.175 14.3812C13.9932 15.4529 13.482 16.4414 12.7125 17.2092C11.943 17.977 10.9534 18.486 9.88125 18.6655H9.75938C9.5704 18.6665 9.38804 18.596 9.24876 18.4683C9.10948 18.3406 9.02355 18.165 9.00815 17.9767C8.99275 17.7883 9.04902 17.6011 9.1657 17.4525C9.28239 17.3038 9.45089 17.2047 9.6375 17.1749C10.4017 17.047 11.1069 16.6838 11.6547 16.1359C12.2026 15.588 12.5658 14.8828 12.6937 14.1187C12.7107 14.0213 12.7468 13.9282 12.7998 13.8448C12.8529 13.7614 12.9219 13.6893 13.003 13.6327C13.084 13.576 13.1754 13.536 13.272 13.5148C13.3685 13.4936 13.4683 13.4918 13.5656 13.5093C13.6636 13.5251 13.7574 13.5604 13.8414 13.6131C13.9255 13.6658 13.9981 13.7349 14.0549 13.8162C14.1117 13.8975 14.1517 13.9894 14.1723 14.0865C14.1929 14.1835 14.1938 14.2837 14.175 14.3812V14.3812Z" fill="black"/>
</svg>
