<svg width="24" height="24" viewBox="0 0 24 24" fill="none" xmlns="http://www.w3.org/2000/svg">
<rect width="24" height="24" rx="12" fill="#202023"/>
<path d="M12 4C10.4178 4 8.87103 4.46919 7.55544 5.34824C6.23985 6.22729 5.21447 7.47672 4.60897 8.93853C4.00347 10.4003 3.84504 12.0089 4.15372 13.5607C4.4624 15.1126 5.22433 16.538 6.34315 17.6569C7.46197 18.7757 8.88743 19.5376 10.4393 19.8463C11.9911 20.155 13.5997 19.9965 15.0615 19.391C16.5233 18.7855 17.7727 17.7602 18.6518 16.4446C19.5308 15.129 20 13.5822 20 12C20 10.9494 19.7931 9.90914 19.391 8.93853C18.989 7.96793 18.3997 7.08601 17.6569 6.34315C16.914 5.60028 16.0321 5.011 15.0615 4.60896C14.0909 4.20693 13.0506 4 12 4ZM12 18.4C10.7342 18.4 9.49683 18.0246 8.44435 17.3214C7.39188 16.6182 6.57158 15.6186 6.08717 14.4492C5.60277 13.2797 5.47603 11.9929 5.72298 10.7514C5.96992 9.50994 6.57946 8.36957 7.47452 7.47452C8.36958 6.57946 9.50995 5.96992 10.7514 5.72297C11.9929 5.47603 13.2797 5.60277 14.4492 6.08717C15.6186 6.57157 16.6182 7.39188 17.3214 8.44435C18.0246 9.49682 18.4 10.7342 18.4 12C18.4 13.6974 17.7257 15.3252 16.5255 16.5255C15.3253 17.7257 13.6974 18.4 12 18.4ZM15.2 11.2H12.8V8.8C12.8 8.58783 12.7157 8.38434 12.5657 8.23431C12.4157 8.08429 12.2122 8 12 8C11.7878 8 11.5843 8.08429 11.4343 8.23431C11.2843 8.38434 11.2 8.58783 11.2 8.8V11.2H8.8C8.58783 11.2 8.38435 11.2843 8.23432 11.4343C8.08429 11.5843 8 11.7878 8 12C8 12.2122 8.08429 12.4157 8.23432 12.5657C8.38435 12.7157 8.58783 12.8 8.8 12.8H11.2V15.2C11.2 15.4122 11.2843 15.6157 11.4343 15.7657C11.5843 15.9157 11.7878 16 12 16C12.2122 16 12.4157 15.9157 12.5657 15.7657C12.7157 15.6157 12.8 15.4122 12.8 15.2V12.8H15.2C15.4122 12.8 15.6157 12.7157 15.7657 12.5657C15.9157 12.4157 16 12.2122 16 12C16 11.7878 15.9157 11.5843 15.7657 11.4343C15.6157 11.2843 15.4122 11.2 15.2 11.2Z" fill="#676771"/>
</svg>
