<svg width="16" height="16" viewBox="0 0 16 16" fill="none" xmlns="http://www.w3.org/2000/svg">
<circle cx="8.00008" cy="8.00008" r="5.33333" fill="white"/>
<path d="M15.3334 7.99994L13.7067 6.14661L13.9334 3.69328L11.5267 3.14661L10.2667 1.02661L8.00008 1.99994L5.73342 1.02661L4.47341 3.14661L2.06675 3.68661L2.29341 6.13995L0.666748 7.99994L2.29341 9.85328L2.06675 12.3133L4.47341 12.8599L5.73342 14.9799L8.00008 13.9999L10.2667 14.9733L11.5267 12.8533L13.9334 12.3066L13.7067 9.85328L15.3334 7.99994ZM6.66675 11.3333L4.00008 8.66661L4.94008 7.72661L6.66675 9.44661L11.0601 5.05328L12.0001 5.99994L6.66675 11.3333Z" fill="#00B2EC"/>
</svg>
