<svg width="253" height="239" viewBox="0 0 253 239" fill="none" xmlns="http://www.w3.org/2000/svg">
<path d="M213.668 28.7133L145.915 10.5588C121.339 3.97373 103.174 14.5295 96.5673 39.1862L74.191 122.696C67.476 147.756 78.0159 165.657 102.592 172.242L170.345 190.397C195.317 197.088 212.991 186.747 219.706 161.686L242.082 78.1768C248.689 53.5201 238.64 35.4045 213.668 28.7133Z" fill="url(#paint0_linear_416_41030)"/>
<g opacity="0.5" filter="url(#filter0_f_416_41030)">
<path d="M195.965 51.5815L149.804 39.2127C133.06 34.7262 120.685 41.9179 116.183 58.7168L100.938 115.613C96.3631 132.687 103.544 144.883 120.288 149.369L166.449 161.738C183.462 166.297 195.504 159.251 200.079 142.177L215.324 85.2814C219.825 68.4826 212.979 56.1403 195.965 51.5815Z" fill="#669F2A"/>
</g>
<g filter="url(#filter1_b_416_41030)">
<mask id="path-3-outside-1_416_41030" maskUnits="userSpaceOnUse" x="0.392578" y="42.9463" width="196" height="196" fill="black">
<rect fill="white" x="0.392578" y="42.9463" width="196" height="196"/>
<path d="M140.479 44.9463H56.9917C24.3478 44.9463 2.39258 67.8644 2.39258 101.953V180.626C2.39258 214.618 24.3478 237.536 56.9917 237.536H140.479C173.123 237.536 194.982 214.618 194.982 180.626V101.953C194.982 67.8644 173.123 44.9463 140.479 44.9463Z"/>
</mask>
<path d="M140.479 44.9463H56.9917C24.3478 44.9463 2.39258 67.8644 2.39258 101.953V180.626C2.39258 214.618 24.3478 237.536 56.9917 237.536H140.479C173.123 237.536 194.982 214.618 194.982 180.626V101.953C194.982 67.8644 173.123 44.9463 140.479 44.9463Z" fill="#72DC60" fill-opacity="0.35"/>
<path d="M140.479 46.3447C141.251 46.3447 141.878 45.7186 141.878 44.9463C141.878 44.174 141.251 43.5479 140.479 43.5479V46.3447ZM140.479 43.5479C139.707 43.5479 139.081 44.174 139.081 44.9463C139.081 45.7186 139.707 46.3447 140.479 46.3447V43.5479ZM140.479 43.5479H56.9917V46.3447H140.479V43.5479ZM56.9917 43.5479C40.3302 43.5479 26.3014 49.4043 16.4408 59.6991C6.58511 69.9886 0.994141 84.6054 0.994141 101.953H3.79102C3.79102 85.2117 9.17764 71.3253 18.4606 61.6337C27.7385 51.9473 41.0092 46.3447 56.9917 46.3447V43.5479ZM0.994141 101.953V180.626H3.79102V101.953H0.994141ZM0.994141 180.626C0.994141 197.926 6.58574 212.518 16.4413 222.796C26.3018 233.078 40.3303 238.934 56.9917 238.934V236.137C41.0092 236.137 27.7381 230.535 18.46 220.86C9.17701 211.18 3.79102 197.317 3.79102 180.626H0.994141ZM56.9917 238.934H140.479V236.137H56.9917V238.934ZM140.479 238.934C157.141 238.934 171.146 233.077 180.983 222.794C190.814 212.517 196.38 197.924 196.38 180.626H193.583C193.583 197.319 188.221 211.182 178.961 220.861C169.708 230.535 156.461 236.137 140.479 236.137V238.934ZM196.38 180.626V101.953H193.583V180.626H196.38ZM196.38 101.953C196.38 84.6072 190.815 69.9905 180.983 59.7003C171.146 49.4045 157.141 43.5479 140.479 43.5479V46.3447C156.461 46.3447 169.707 51.9471 178.961 61.6324C188.22 71.3235 193.583 85.21 193.583 101.953H196.38Z" fill="url(#paint1_linear_416_41030)" mask="url(#path-3-outside-1_416_41030)"/>
</g>
<g filter="url(#filter2_bd_416_41030)">
<mask id="path-5-inside-2_416_41030" fill="white">
<path d="M87.2574 172.517C85.1004 172.517 82.9434 171.698 81.2968 170.052L58.446 147.201C55.1528 143.908 55.1528 138.573 58.446 135.289C61.7393 131.996 67.0644 131.986 70.3577 135.28L87.2574 152.179L127.008 112.429C130.301 109.136 135.626 109.136 138.92 112.429C142.213 115.722 142.213 121.057 138.92 124.35L93.218 170.052C91.5714 171.698 89.4144 172.517 87.2574 172.517Z"/>
</mask>
<path d="M87.2574 172.517C85.1004 172.517 82.9434 171.698 81.2968 170.052L58.446 147.201C55.1528 143.908 55.1528 138.573 58.446 135.289C61.7393 131.996 67.0644 131.986 70.3577 135.28L87.2574 152.179L127.008 112.429C130.301 109.136 135.626 109.136 138.92 112.429C142.213 115.722 142.213 121.057 138.92 124.35L93.218 170.052C91.5714 171.698 89.4144 172.517 87.2574 172.517Z" fill="url(#paint2_linear_416_41030)"/>
<path d="M58.446 135.289L58.6435 135.487L58.6438 135.487L58.446 135.289ZM87.2574 152.179L87.0596 152.377L87.2574 152.575L87.4552 152.377L87.2574 152.179ZM138.92 124.35L138.722 124.152L138.92 124.35ZM93.218 170.052L93.4158 170.249L93.218 170.052ZM87.2574 172.237C85.1712 172.237 83.0864 171.446 81.4945 169.854L81.099 170.249C82.8004 171.951 85.0296 172.797 87.2574 172.797V172.237ZM81.4945 169.854L58.6438 147.003L58.2483 147.399L81.099 170.249L81.4945 169.854ZM58.6438 147.003C55.4596 143.819 55.46 138.662 58.6435 135.487L58.2486 135.091C54.8455 138.484 54.8459 143.996 58.2483 147.399L58.6438 147.003ZM58.6438 135.487C61.8283 132.303 66.9763 132.294 70.1599 135.477L70.5555 135.082C67.1525 131.679 61.6504 131.689 58.2483 135.092L58.6438 135.487ZM70.1599 135.477L87.0596 152.377L87.4552 151.982L70.5555 135.082L70.1599 135.477ZM87.4552 152.377L127.206 112.627L126.81 112.231L87.0596 151.982L87.4552 152.377ZM127.206 112.627C130.39 109.443 135.538 109.443 138.722 112.627L139.117 112.231C135.715 108.829 130.213 108.829 126.81 112.231L127.206 112.627ZM138.722 112.627C141.906 115.811 141.906 120.968 138.722 124.152L139.117 124.548C142.52 121.145 142.52 115.634 139.117 112.231L138.722 112.627ZM138.722 124.152L93.0203 169.854L93.4158 170.249L139.117 124.548L138.722 124.152ZM93.0203 169.854C91.4284 171.446 89.3436 172.237 87.2574 172.237V172.797C89.4852 172.797 91.7144 171.951 93.4158 170.249L93.0203 169.854Z" fill="url(#paint3_linear_416_41030)" fill-opacity="0.5" mask="url(#path-5-inside-2_416_41030)"/>
</g>
<defs>
<filter id="filter0_f_416_41030" x="80.0083" y="18.3269" width="156.242" height="164.344" filterUnits="userSpaceOnUse" color-interpolation-filters="sRGB">
<feFlood flood-opacity="0" result="BackgroundImageFix"/>
<feBlend mode="normal" in="SourceGraphic" in2="BackgroundImageFix" result="shape"/>
<feGaussianBlur stdDeviation="9.78906" result="effect1_foregroundBlur_416_41030"/>
</filter>
<filter id="filter1_b_416_41030" x="-32.5684" y="9.98535" width="262.511" height="262.511" filterUnits="userSpaceOnUse" color-interpolation-filters="sRGB">
<feFlood flood-opacity="0" result="BackgroundImageFix"/>
<feGaussianBlur in="BackgroundImageFix" stdDeviation="16.7812"/>
<feComposite in2="SourceAlpha" operator="in" result="effect1_backgroundBlur_416_41030"/>
<feBlend mode="normal" in="SourceGraphic" in2="effect1_backgroundBlur_416_41030" result="shape"/>
</filter>
<filter id="filter2_bd_416_41030" x="34.9995" y="88.9824" width="127.367" height="104.511" filterUnits="userSpaceOnUse" color-interpolation-filters="sRGB">
<feFlood flood-opacity="0" result="BackgroundImageFix"/>
<feGaussianBlur in="BackgroundImageFix" stdDeviation="10.4883"/>
<feComposite in2="SourceAlpha" operator="in" result="effect1_backgroundBlur_416_41030"/>
<feColorMatrix in="SourceAlpha" type="matrix" values="0 0 0 0 0 0 0 0 0 0 0 0 0 0 0 0 0 0 127 0" result="hardAlpha"/>
<feOffset dx="6.99219" dy="6.99219"/>
<feGaussianBlur stdDeviation="6.99219"/>
<feColorMatrix type="matrix" values="0 0 0 0 0.454902 0 0 0 0 0.870588 0 0 0 0 0.376471 0 0 0 0.5 0"/>
<feBlend mode="normal" in2="effect1_backgroundBlur_416_41030" result="effect2_dropShadow_416_41030"/>
<feBlend mode="normal" in="SourceGraphic" in2="effect2_dropShadow_416_41030" result="shape"/>
</filter>
<linearGradient id="paint0_linear_416_41030" x1="252.545" y1="39.1303" x2="104.788" y2="129.562" gradientUnits="userSpaceOnUse">
<stop stop-color="#9BF763"/>
<stop offset="1" stop-color="#26AB5B"/>
</linearGradient>
<linearGradient id="paint1_linear_416_41030" x1="33.0497" y1="67.3832" x2="155.901" y2="219.538" gradientUnits="userSpaceOnUse">
<stop stop-color="white" stop-opacity="0.25"/>
<stop offset="1" stop-color="white" stop-opacity="0"/>
</linearGradient>
<linearGradient id="paint2_linear_416_41030" x1="135.334" y1="121.256" x2="40.2785" y2="125.487" gradientUnits="userSpaceOnUse">
<stop stop-color="white"/>
<stop offset="1" stop-color="white" stop-opacity="0.2"/>
</linearGradient>
<linearGradient id="paint3_linear_416_41030" x1="65.177" y1="130.944" x2="137.703" y2="131.491" gradientUnits="userSpaceOnUse">
<stop stop-color="white"/>
<stop offset="1" stop-color="white" stop-opacity="0"/>
</linearGradient>
</defs>
</svg>
