<svg width="20" height="20" viewBox="0 0 20 20" fill="none" xmlns="http://www.w3.org/2000/svg">
<path d="M15.8334 17.5002H6.66675V5.8335H15.8334V17.5002ZM15.8334 4.16683H6.66675C6.22472 4.16683 5.8008 4.34242 5.48824 4.65498C5.17568 4.96755 5.00008 5.39147 5.00008 5.8335V17.5002C5.00008 17.9422 5.17568 18.3661 5.48824 18.6787C5.8008 18.9912 6.22472 19.1668 6.66675 19.1668H15.8334C16.2754 19.1668 16.6994 18.9912 17.0119 18.6787C17.3245 18.3661 17.5001 17.9422 17.5001 17.5002V5.8335C17.5001 5.39147 17.3245 4.96755 17.0119 4.65498C16.6994 4.34242 16.2754 4.16683 15.8334 4.16683ZM13.3334 0.833496H3.33341C2.89139 0.833496 2.46746 1.00909 2.1549 1.32165C1.84234 1.63421 1.66675 2.05814 1.66675 2.50016V14.1668H3.33341V2.50016H13.3334V0.833496Z" fill="white"/>
</svg>
