<svg width="20" height="20" viewBox="0 0 20 20" fill="none" xmlns="http://www.w3.org/2000/svg">
<path d="M15.8332 17.5002H6.6665V5.8335H15.8332V17.5002ZM15.8332 4.16683H6.6665C6.22448 4.16683 5.80055 4.34242 5.48799 4.65498C5.17543 4.96755 4.99984 5.39147 4.99984 5.8335V17.5002C4.99984 17.9422 5.17543 18.3661 5.48799 18.6787C5.80055 18.9912 6.22448 19.1668 6.6665 19.1668H15.8332C16.2752 19.1668 16.6991 18.9912 17.0117 18.6787C17.3242 18.3661 17.4998 17.9422 17.4998 17.5002V5.8335C17.4998 5.39147 17.3242 4.96755 17.0117 4.65498C16.6991 4.34242 16.2752 4.16683 15.8332 4.16683V4.16683ZM13.3332 0.833496H3.33317C2.89114 0.833496 2.46722 1.00909 2.15466 1.32165C1.8421 1.63421 1.6665 2.05814 1.6665 2.50016V14.1668H3.33317V2.50016H13.3332V0.833496Z" fill="white"/>
</svg>
