<svg width="20" height="20" viewBox="0 0 20 20" fill="none" xmlns="http://www.w3.org/2000/svg">
<path d="M15.8332 17.4999H6.6665V5.83325H15.8332V17.4999ZM15.8332 4.16659H6.6665C6.22448 4.16659 5.80055 4.34218 5.48799 4.65474C5.17543 4.9673 4.99984 5.39122 4.99984 5.83325V17.4999C4.99984 17.9419 5.17543 18.3659 5.48799 18.6784C5.80055 18.991 6.22448 19.1666 6.6665 19.1666H15.8332C16.2752 19.1666 16.6991 18.991 17.0117 18.6784C17.3242 18.3659 17.4998 17.9419 17.4998 17.4999V5.83325C17.4998 5.39122 17.3242 4.9673 17.0117 4.65474C16.6991 4.34218 16.2752 4.16659 15.8332 4.16659V4.16659ZM13.3332 0.833252H3.33317C2.89114 0.833252 2.46722 1.00885 2.15466 1.32141C1.8421 1.63397 1.6665 2.05789 1.6665 2.49992V14.1666H3.33317V2.49992H13.3332V0.833252Z" fill="white"/>
</svg>
