<svg width="20" height="20" viewBox="0 0 20 20" fill="none" xmlns="http://www.w3.org/2000/svg">
<path d="M15.8334 17.5002H6.66669V5.8335H15.8334V17.5002ZM15.8334 4.16683H6.66669C6.22466 4.16683 5.80074 4.34242 5.48818 4.65498C5.17561 4.96755 5.00002 5.39147 5.00002 5.8335V17.5002C5.00002 17.9422 5.17561 18.3661 5.48818 18.6787C5.80074 18.9912 6.22466 19.1668 6.66669 19.1668H15.8334C16.2754 19.1668 16.6993 18.9912 17.0119 18.6787C17.3244 18.3661 17.5 17.9422 17.5 17.5002V5.8335C17.5 5.39147 17.3244 4.96755 17.0119 4.65498C16.6993 4.34242 16.2754 4.16683 15.8334 4.16683ZM13.3334 0.833496H3.33335C2.89133 0.833496 2.4674 1.00909 2.15484 1.32165C1.84228 1.63421 1.66669 2.05814 1.66669 2.50016V14.1668H3.33335V2.50016H13.3334V0.833496Z" fill="white"/>
</svg>
