<svg width="20" height="20" viewBox="0 0 20 20" fill="none" xmlns="http://www.w3.org/2000/svg">
<path d="M15.8337 17.5002H6.66699V5.8335H15.8337V17.5002ZM15.8337 4.16683H6.66699C6.22496 4.16683 5.80104 4.34242 5.48848 4.65498C5.17592 4.96755 5.00033 5.39147 5.00033 5.8335V17.5002C5.00033 17.9422 5.17592 18.3661 5.48848 18.6787C5.80104 18.9912 6.22496 19.1668 6.66699 19.1668H15.8337C16.2757 19.1668 16.6996 18.9912 17.0122 18.6787C17.3247 18.3661 17.5003 17.9422 17.5003 17.5002V5.8335C17.5003 5.39147 17.3247 4.96755 17.0122 4.65498C16.6996 4.34242 16.2757 4.16683 15.8337 4.16683V4.16683ZM13.3337 0.833496H3.33366C2.89163 0.833496 2.46771 1.00909 2.15515 1.32165C1.84259 1.63421 1.66699 2.05814 1.66699 2.50016V14.1668H3.33366V2.50016H13.3337V0.833496Z" fill="white"/>
</svg>
