<svg width="32" height="32" viewBox="0 0 32 32" fill="none" xmlns="http://www.w3.org/2000/svg">
<path d="M9.33301 18.6663V14.5463C8.37301 14.1063 7.47967 13.573 6.66634 12.9463V18.6663H9.33301ZM6.66634 23.9997H3.99967V21.333H1.33301V18.6663H3.99967V9.33301H6.66634V11.2397C9.06634 13.333 12.3597 14.6663 15.9997 14.6663C19.6397 14.6663 22.933 13.333 25.333 11.2397V9.33301H27.9997V18.6663H30.6663V21.333H27.9997V23.9997H25.333V21.333H6.66634V23.9997ZM22.6663 14.5463V18.6663H25.333V12.9463C24.5197 13.573 23.6263 14.1063 22.6663 14.5463ZM21.333 18.6663V15.093C20.4797 15.3997 19.5863 15.6263 18.6663 15.7863V18.6663H21.333ZM17.333 18.6663V15.9463L15.9997 15.9997L14.6663 15.9463V18.6663H17.333ZM13.333 18.6663V15.7863C12.413 15.6263 11.5197 15.3997 10.6663 15.093V18.6663H13.333Z" fill="white"/>
</svg>
