<svg width="22" height="16" viewBox="0 0 22 16" fill="none" xmlns="http://www.w3.org/2000/svg">
<path d="M14.002 5.12861e-07C14.261 5.12861e-07 14.586 0.0680005 14.847 0.132C15.757 0.352 16.836 0.625 17.602 1.2C18.315 1.735 18.869 2.668 19.297 3.616C20.187 5.591 20.806 8.224 21.02 10.226C21.122 11.176 21.147 12.132 20.964 12.775C20.874 13.091 20.679 13.329 20.542 13.475C20.124 13.918 19.586 14.249 19.054 14.55L18.79 14.699C18.6162 14.7957 18.4412 14.8904 18.265 14.983L17.743 15.253L17.026 15.61L16.449 15.894C16.2379 15.9998 15.9961 16.0274 15.7665 15.972C15.537 15.9166 15.3344 15.7817 15.1948 15.5913C15.0551 15.4008 14.9874 15.1671 15.0035 14.9315C15.0197 14.6959 15.1187 14.4736 15.283 14.304L14.849 13.436C13.6011 13.8152 12.3033 14.0054 10.999 14C9.62904 14 8.32204 13.8 7.14904 13.436L6.71604 14.302C6.88099 14.4713 6.98064 14.6936 6.9973 14.9294C7.01395 15.1652 6.94654 15.3992 6.80703 15.5901C6.66751 15.7809 6.4649 15.9161 6.23516 15.9717C6.00542 16.0274 5.7634 15.9998 5.55204 15.894L5.00804 15.624C4.40404 15.326 3.80004 15.028 3.21204 14.699C2.59804 14.356 1.94704 13.991 1.46004 13.474C1.26569 13.2776 1.12102 13.0376 1.03804 12.774C0.854038 12.132 0.880038 11.177 0.981038 10.226C1.19504 8.224 1.81404 5.591 2.70504 3.616C3.13204 2.668 3.68604 1.735 4.39904 1.2C5.16504 0.625 6.24404 0.352 7.15404 0.132C7.41504 0.0680005 7.73904 5.12861e-07 7.99904 5.12861e-07C8.14286 -0.000123685 8.28501 0.0307758 8.4158 0.090591C8.5466 0.150406 8.66295 0.23773 8.75692 0.346604C8.85089 0.455478 8.92027 0.583341 8.96033 0.721469C9.00039 0.859598 9.01018 1.00474 8.98904 1.147C9.6545 1.04854 10.3263 0.999405 10.999 1C11.69 1 12.365 1.05 13.013 1.148C12.9917 1.00567 13.0014 0.860414 13.0414 0.722162C13.0814 0.583911 13.1507 0.455919 13.2447 0.34693C13.3387 0.237941 13.4551 0.150524 13.586 0.0906496C13.7169 0.0307753 13.8581 -0.000145235 14.002 5.12861e-07ZM15.356 2.363C15.206 2.315 15.17 2.336 15.116 2.426L15.054 2.538C14.8924 2.81506 14.647 3.03367 14.3532 3.16234C14.0594 3.29102 13.7323 3.32311 13.419 3.254C12.6237 3.08328 11.8125 2.99813 10.999 3C10.147 3 9.33204 3.09 8.57904 3.254C8.26581 3.32311 7.93872 3.29102 7.6449 3.16234C7.35108 3.03367 7.10567 2.81506 6.94404 2.538L6.88204 2.427C6.82904 2.337 6.79304 2.316 6.64404 2.363C6.28804 2.476 5.90604 2.597 5.59904 2.8C5.31204 3.015 4.92904 3.55 4.52804 4.439C3.76204 6.136 3.16204 8.643 2.97004 10.439C2.93004 10.818 2.90904 11.143 2.90404 11.411V11.705C2.90804 11.883 2.92104 12.024 2.93904 12.126C3.19304 12.375 3.50704 12.57 3.82204 12.749L4.50404 13.126L4.95004 13.361L5.31404 12.633C5.1378 12.4688 5.02677 12.2465 5.00134 12.007C4.9759 11.7674 5.03779 11.5268 5.17561 11.3292C5.31344 11.1317 5.51794 10.9905 5.75153 10.9317C5.98511 10.8728 6.23208 10.9003 6.44704 11.009C7.66304 11.62 9.24504 12 10.999 12C12.752 12 14.335 11.618 15.551 11.01C15.7568 10.9069 15.9918 10.878 16.2165 10.928C16.4411 10.9781 16.6416 11.1041 16.7841 11.2848C16.9266 11.4655 17.0025 11.6899 16.9988 11.92C16.9952 12.1501 16.9122 12.3719 16.764 12.548L16.684 12.633L17.048 13.363C17.346 13.209 17.645 13.046 17.945 12.88C18.335 12.664 18.745 12.437 19.062 12.127C19.08 12.024 19.092 11.883 19.097 11.705V11.411C19.0889 11.0859 19.0669 10.7612 19.031 10.438C18.839 8.643 18.239 6.136 17.473 4.438C17.073 3.55 16.689 3.015 16.403 2.8C16.095 2.597 15.713 2.476 15.356 2.363ZM7.74904 6.5C8.21317 6.5 8.65829 6.68437 8.98647 7.01256C9.31466 7.34075 9.49904 7.78587 9.49904 8.25C9.49904 8.71413 9.31466 9.15925 8.98647 9.48744C8.65829 9.81563 8.21317 10 7.74904 10C7.28491 10 6.83979 9.81563 6.5116 9.48744C6.18341 9.15925 5.99904 8.71413 5.99904 8.25C5.99904 7.78587 6.18341 7.34075 6.5116 7.01256C6.83979 6.68437 7.28491 6.5 7.74904 6.5ZM14.249 6.5C14.7132 6.5 15.1583 6.68437 15.4865 7.01256C15.8147 7.34075 15.999 7.78587 15.999 8.25C15.999 8.71413 15.8147 9.15925 15.4865 9.48744C15.1583 9.81563 14.7132 10 14.249 10C13.7849 10 13.3398 9.81563 13.0116 9.48744C12.6834 9.15925 12.499 8.71413 12.499 8.25C12.499 7.78587 12.6834 7.34075 13.0116 7.01256C13.3398 6.68437 13.7849 6.5 14.249 6.5Z" fill="white"/>
</svg>
