<svg width="20" height="21" viewBox="0 0 20 21" fill="none" xmlns="http://www.w3.org/2000/svg">
<path d="M18.0909 17.7537L14.9992 14.5337C16.1993 12.9626 16.7804 10.9684 16.6232 8.96111C16.466 6.95387 15.5822 5.08616 14.1538 3.74204C12.7253 2.39792 10.8607 1.67955 8.94329 1.73464C7.02589 1.78973 5.20146 2.61409 3.84514 4.03823C2.48882 5.46236 1.70371 7.37801 1.65125 9.39128C1.59878 11.4046 2.28294 13.3624 3.56306 14.8623C4.84317 16.3622 6.62194 17.2901 8.5336 17.4552C10.4453 17.6203 12.3445 17.0101 13.8409 15.75L16.9075 18.97C16.985 19.052 17.0772 19.1171 17.1787 19.1615C17.2803 19.2059 17.3892 19.2288 17.4992 19.2288C17.6092 19.2288 17.7181 19.2059 17.8197 19.1615C17.9212 19.1171 18.0134 19.052 18.0909 18.97C18.2411 18.8068 18.325 18.5888 18.325 18.3619C18.325 18.1349 18.2411 17.9169 18.0909 17.7537V17.7537ZM9.16585 15.75C8.01213 15.75 6.88431 15.3908 5.92503 14.7177C4.96574 14.0447 4.21807 13.0881 3.77656 11.9689C3.33505 10.8497 3.21953 9.61818 3.44461 8.43005C3.66969 7.24192 4.22526 6.15054 5.04107 5.29395C5.85687 4.43735 6.89627 3.854 8.02783 3.61767C9.15938 3.38133 10.3323 3.50263 11.3982 3.96621C12.4641 4.4298 13.3751 5.21486 14.0161 6.22211C14.6571 7.22936 14.9992 8.41357 14.9992 9.62498C14.9992 11.2494 14.3846 12.8073 13.2906 13.956C12.1967 15.1047 10.713 15.75 9.16585 15.75V15.75Z" fill="#81818D"/>
</svg>
