<svg width="19" height="17" viewBox="0 0 19 17" fill="none" xmlns="http://www.w3.org/2000/svg">
<path d="M6.15447 16.1668H6.0778C4.53331 16.1533 3.01116 15.7965 1.62155 15.1222C1.36594 15.0021 1.15547 14.8034 1.02097 14.5551C0.88646 14.3068 0.834975 14.0219 0.87405 13.7422C0.916547 13.4606 1.04692 13.1997 1.24656 12.9966C1.4462 12.7935 1.7049 12.6587 1.98572 12.6114C2.84688 12.4965 3.67534 12.2062 4.41988 11.7585C3.12725 10.7478 2.1321 9.4063 1.53992 7.87606C0.947733 6.34583 0.780566 4.68389 1.05613 3.06637C1.0935 2.81016 1.20368 2.57008 1.37358 2.3747C1.54348 2.17932 1.76593 2.03687 2.01447 1.96429C2.25627 1.88835 2.51505 1.8851 2.75868 1.95496C3.00231 2.02481 3.22005 2.16468 3.38488 2.35721C3.94455 3.09108 4.64787 3.70324 5.45192 4.15635C6.25597 4.60945 7.1439 4.89399 8.06155 4.99262C8.10538 3.86356 8.59059 2.79681 9.4128 2.02179C9.82335 1.62866 10.308 1.32116 10.8386 1.11723C11.3692 0.913289 11.9351 0.816989 12.5032 0.833936C13.0714 0.850883 13.6305 0.980738 14.148 1.21594C14.6655 1.45113 15.131 1.78697 15.5174 2.20387C15.6181 2.29287 15.7431 2.34959 15.8764 2.36667C16.0097 2.38376 16.145 2.36043 16.2649 2.29971C16.4934 2.19194 16.7478 2.15137 16.9985 2.18273C17.2492 2.2141 17.4858 2.31611 17.6807 2.47685C17.8756 2.63759 18.0207 2.85045 18.0992 3.09057C18.1778 3.3307 18.1864 3.58821 18.1241 3.83304C17.903 4.74356 17.4842 5.59426 16.8974 6.3247C16.768 9.05092 15.5661 11.6154 13.5537 13.4591C11.5413 15.3028 8.88156 16.2761 6.15447 16.1668ZM6.15447 14.2501H6.23113C7.34536 14.2884 8.45611 14.1052 9.49898 13.711C10.5419 13.3169 11.4961 12.7196 12.3064 11.9538C13.1167 11.1881 13.767 10.2691 14.2195 9.2502C14.672 8.23127 14.9177 7.13265 14.9424 6.01804C14.9582 5.71257 15.0842 5.42318 15.297 5.20345C15.5307 4.90757 15.73 4.58606 15.8911 4.24512C15.5459 4.24578 15.2044 4.17356 14.889 4.03319C14.5736 3.89282 14.2913 3.68746 14.0607 3.43054C13.839 3.21065 13.5756 3.03722 13.2859 2.92038C12.9963 2.80355 12.6863 2.74567 12.3741 2.75012C12.0587 2.74197 11.7448 2.79618 11.4504 2.90966C11.156 3.02313 10.8869 3.19363 10.6586 3.41137C10.3506 3.70366 10.1247 4.07173 10.0037 4.47873C9.88256 4.88573 9.87049 5.3174 9.96863 5.73054L10.2178 6.82304L9.09655 6.8997C7.9476 6.99339 6.79201 6.83623 5.70981 6.43909C4.62762 6.04195 3.64467 5.41434 2.82905 4.5997C2.79407 5.86125 3.10965 7.10778 3.74071 8.20071C4.37176 9.29364 5.29357 10.1901 6.40363 10.7905L7.31405 11.308L6.7103 12.1705C6.05738 13.0268 5.16277 13.6677 4.14197 14.0105C4.79681 14.1747 5.46981 14.2552 6.14488 14.2501H6.15447Z" fill="#D8D8DC"/>
</svg>
