<svg width="40" height="40" viewBox="0 0 40 40" fill="none" xmlns="http://www.w3.org/2000/svg">
<circle cx="20" cy="20" r="19.5" fill="url(#paint0_linear_169_4794)" stroke="url(#paint1_linear_169_4794)"/>
<path d="M27.9912 10.002C27.8599 10.0019 27.7298 10.0277 27.6084 10.0779C27.4871 10.1281 27.3768 10.2018 27.2839 10.2947C27.1911 10.3876 27.1174 10.4978 27.0672 10.6192C27.017 10.7405 26.9911 10.8706 26.9912 11.002V11.6387C26.1478 12.6844 25.0819 13.5289 23.871 14.1107C22.66 14.6925 21.3346 14.997 19.9912 15.002H13.9912C13.1958 15.0028 12.4333 15.3192 11.8708 15.8816C11.3084 16.444 10.9921 17.2066 10.9912 18.002V20.002C10.9921 20.7973 11.3084 21.5599 11.8708 22.1223C12.4333 22.6847 13.1958 23.0011 13.9912 23.002H14.475L12.0723 28.6084C12.007 28.7604 11.9805 28.9263 11.9951 29.0911C12.0098 29.256 12.0651 29.4146 12.1562 29.5528C12.2473 29.6909 12.3713 29.8043 12.5171 29.8827C12.6628 29.9611 12.8257 30.0021 12.9912 30.002H16.9912C17.187 30.0021 17.3784 29.9446 17.5418 29.8368C17.7052 29.729 17.8333 29.5755 17.9102 29.3955L20.6339 23.04C21.8646 23.1303 23.0636 23.472 24.157 24.0439C25.2505 24.6158 26.215 25.4058 26.9912 26.365V27.002C26.9912 27.2672 27.0966 27.5215 27.2841 27.7091C27.4716 27.8966 27.726 28.002 27.9912 28.002C28.2564 28.002 28.5108 27.8966 28.6983 27.7091C28.8859 27.5215 28.9912 27.2672 28.9912 27.002V11.002C28.9913 10.8706 28.9655 10.7405 28.9152 10.6192C28.865 10.4978 28.7914 10.3876 28.6985 10.2947C28.6056 10.2018 28.4953 10.1281 28.374 10.0779C28.2526 10.0277 28.1226 10.0019 27.9912 10.002ZM13.9912 21.002C13.726 21.0018 13.4718 20.8964 13.2843 20.7089C13.0968 20.5214 12.9914 20.2671 12.9912 20.002V18.002C12.9914 17.7368 13.0968 17.4825 13.2843 17.295C13.4718 17.1075 13.726 17.0021 13.9912 17.002H14.9912V21.002H13.9912ZM16.332 28.002H14.5078L16.6504 23.002H18.4746L16.332 28.002ZM26.9912 23.5238C25.0195 21.8994 22.5459 21.0082 19.9912 21.0019H16.9912V17.0019H19.9912C22.5459 16.9954 25.0195 16.1041 26.9912 14.4796V23.5238Z" fill="white"/>
<defs>
<linearGradient id="paint0_linear_169_4794" x1="9.31323e-08" y1="20" x2="40" y2="20" gradientUnits="userSpaceOnUse">
<stop stop-color="#00B2EC"/>
<stop offset="1" stop-color="#D9CA0F"/>
</linearGradient>
<linearGradient id="paint1_linear_169_4794" x1="9.31323e-08" y1="20" x2="40" y2="20" gradientUnits="userSpaceOnUse">
<stop stop-color="#00B2EC"/>
<stop offset="1" stop-color="#D9CA0F"/>
</linearGradient>
</defs>
</svg>
