<svg width="200" height="200" viewBox="0 0 200 200" fill="none" background="#2D2D31" xmlns="http://www.w3.org/2000/svg">
<path d="M68.0766 55.886L78.3945 77.0597C79.7142 79.8267 78.3945 82.7141 75.3951 83.3156L56.3191 87.7669C53.9196 88.3684 52 90.7745 52 93.1806V115.918C52 119.768 55.1193 122.174 58.8386 121.332L76.5948 117.242C78.9943 116.76 80.9139 114.234 80.9139 111.828L81.0339 88.4887C81.0339 85.2405 83.6734 81.9922 86.7927 81.2704L144.981 67.315C146.42 66.9541 147.5 65.5104 147.5 64.0667V36.8777C147.5 34.5919 145.7 33.028 143.421 33.6295L70.3561 51.1941C68.0766 51.6753 67.1168 53.8408 68.0766 55.886Z" fill="black"/>
<path d="M94.1581 123.591L54.5295 132.732C53.0841 133.093 52 134.536 52 135.979V163.16C52 165.445 53.8068 166.889 56.0954 166.408L111.383 153.659C113.671 153.178 114.635 151.013 113.671 148.968L103.674 128.402C102.108 125.155 103.674 121.787 107.167 121.066L143.302 112.406C145.832 111.805 148 109.159 148 106.513V81.3767C148 79.0916 146.193 77.5281 143.905 78.1294L91.7491 90.5172C88.4969 91.2389 87.0514 94.3659 88.4969 97.3726L97.6512 116.255C99.2171 119.502 97.6512 122.75 94.1581 123.591Z" fill="black"/>
</svg>
