<svg width="35" height="35" viewBox="0 0 35 35" fill="none" xmlns="http://www.w3.org/2000/svg">
<path d="M23.3643 6.41897C21.7044 4.50305 19.8403 2.77406 17.8052 1.26272C17.6236 1.13742 17.4081 1.07031 17.1875 1.07031C16.9669 1.07031 16.7514 1.13742 16.5698 1.26272C14.5347 2.77406 12.6706 4.50305 11.0107 6.41897C7.31812 10.6487 5.37109 15.1201 5.37109 19.3365C5.37109 22.4704 6.61603 25.4759 8.83204 27.6919C11.048 29.9079 14.0536 31.1529 17.1875 31.1529C20.3214 31.1529 23.327 29.9079 25.543 27.6919C27.759 25.4759 29.0039 22.4704 29.0039 19.3365C29.0039 15.1201 27.0569 10.6487 23.3643 6.41897ZM24.5996 20.5987C24.3392 22.1337 23.607 23.5495 22.5048 24.6492C21.4027 25.749 19.9853 26.478 18.4497 26.7351H18.2751C18.0045 26.7365 17.7433 26.6356 17.5438 26.4527C17.3443 26.2697 17.2212 26.0182 17.1992 25.7485C17.1771 25.4787 17.2577 25.2105 17.4248 24.9976C17.592 24.7847 17.8333 24.6428 18.1006 24.6001C19.1951 24.4169 20.2051 23.8966 20.9898 23.1119C21.7745 22.3272 22.2948 21.3172 22.478 20.2227C22.5023 20.0832 22.554 19.9499 22.63 19.8304C22.706 19.711 22.8049 19.6077 22.9209 19.5266C23.037 19.4455 23.1679 19.3881 23.3062 19.3578C23.4445 19.3275 23.5875 19.3248 23.7268 19.3499C23.8671 19.3725 24.0014 19.423 24.1218 19.4985C24.2422 19.5741 24.3462 19.673 24.4276 19.7895C24.509 19.906 24.5662 20.0376 24.5957 20.1766C24.6253 20.3156 24.6266 20.4591 24.5996 20.5987Z" fill="white"/>
</svg>
