<svg width="16" height="16" viewBox="0 0 16 16" fill="none" xmlns="http://www.w3.org/2000/svg">
<path d="M7.20064 8.26716C6.98011 7.97233 6.56231 7.9121 6.26748 8.13264C5.97265 8.35318 5.91242 8.77097 6.13296 9.0658L7.20064 8.26716ZM11.6935 9.02648L11.2221 8.55508L11.222 8.55516L11.6935 9.02648ZM13.6935 7.02648L14.1649 7.49796L14.173 7.48962L13.6935 7.02648ZM8.98013 2.31315L8.51694 1.83357L8.51011 1.84037L8.98013 2.31315ZM7.36344 2.98037C7.10233 3.23996 7.1011 3.66207 7.36069 3.92318C7.62028 4.18428 8.04239 4.18551 8.30349 3.92592L7.36344 2.98037ZM8.79962 7.73247C9.02016 8.0273 9.43795 8.08753 9.73279 7.86699C10.0276 7.64645 10.0878 7.22866 9.86731 6.93383L8.79962 7.73247ZM4.3068 6.97315L4.7782 7.44455L4.77829 7.44447L4.3068 6.97315ZM2.3068 8.97315L1.83532 8.50167L1.82727 8.51001L2.3068 8.97315ZM7.02013 13.6865L7.48334 14.1661L7.49154 14.1579L7.02013 13.6865ZM8.63154 13.0179C8.89189 12.7575 8.89189 12.3354 8.63154 12.0751C8.37119 11.8147 7.94908 11.8147 7.68873 12.0751L8.63154 13.0179ZM6.13296 9.0658C6.47652 9.5251 6.91484 9.90515 7.4182 10.1802L8.05747 9.01006C7.7219 8.82673 7.42968 8.57336 7.20064 8.26716L6.13296 9.0658ZM7.4182 10.1802C7.92155 10.4552 8.47816 10.6187 9.05028 10.6597L9.14552 9.32974C8.76411 9.30242 8.39304 9.1934 8.05747 9.01006L7.4182 10.1802ZM9.05028 10.6597C9.62239 10.7006 10.1966 10.6181 10.734 10.4176L10.268 9.16838C9.90976 9.30202 9.52693 9.35706 9.14552 9.32974L9.05028 10.6597ZM10.734 10.4176C11.2714 10.2172 11.7594 9.90346 12.165 9.4978L11.222 8.55516C10.9516 8.8256 10.6263 9.03473 10.268 9.16838L10.734 10.4176ZM12.1649 9.49789L14.1649 7.49789L13.2221 6.55508L11.2221 8.55508L12.1649 9.49789ZM14.173 7.48962C14.9016 6.73521 15.3048 5.7248 15.2957 4.67602L13.9624 4.6876C13.9685 5.38679 13.6997 6.0604 13.2139 6.56334L14.173 7.48962ZM15.2957 4.67602C15.2866 3.62723 14.8659 2.62398 14.1243 1.88235L13.1815 2.82516C13.6759 3.31958 13.9563 3.98841 13.9624 4.6876L15.2957 4.67602ZM14.1243 1.88235C13.3826 1.14072 12.3794 0.72004 11.3306 0.710926L11.319 2.04421C12.0182 2.05028 12.687 2.33074 13.1815 2.82516L14.1243 1.88235ZM11.3306 0.710926C10.2818 0.701812 9.2714 1.10499 8.51699 1.83362L9.44327 2.79267C9.94621 2.30692 10.6198 2.03813 11.319 2.04421L11.3306 0.710926ZM8.51011 1.84037L7.36344 2.98037L8.30349 3.92592L9.45016 2.78592L8.51011 1.84037ZM9.86731 6.93383C9.52375 6.47453 9.08542 6.09448 8.58207 5.81948L7.9428 6.98957C8.27837 7.1729 8.57058 7.42626 8.79962 7.73247L9.86731 6.93383ZM8.58207 5.81948C8.07872 5.54447 7.5221 5.38094 6.94999 5.33996L6.85474 6.66989C7.23615 6.6972 7.60723 6.80623 7.9428 6.98957L8.58207 5.81948ZM6.94999 5.33996C6.37787 5.29899 5.80364 5.38154 5.26623 5.582L5.73224 6.83125C6.09051 6.6976 6.47333 6.64257 6.85474 6.66989L6.94999 5.33996ZM5.26623 5.582C4.72883 5.78247 4.24082 6.09617 3.83531 6.50183L4.77829 7.44447C5.04863 7.17403 5.37397 6.9649 5.73224 6.83125L5.26623 5.582ZM3.8354 6.50174L1.8354 8.50174L2.7782 9.44455L4.7782 7.44455L3.8354 6.50174ZM1.82727 8.51001C1.09864 9.26442 0.695465 10.2748 0.704578 11.3236L2.03786 11.312C2.03179 10.6128 2.30057 9.93923 2.78633 9.43629L1.82727 8.51001ZM0.704578 11.3236C0.713692 12.3724 1.13437 13.3756 1.876 14.1173L2.81881 13.1745C2.32439 12.6801 2.04394 12.0112 2.03786 11.312L0.704578 11.3236ZM1.876 14.1173C2.61763 14.8589 3.62088 15.2796 4.66967 15.2887L4.68126 13.9554C3.98206 13.9493 3.31323 13.6689 2.81881 13.1745L1.876 14.1173ZM4.66967 15.2887C5.71846 15.2978 6.72887 14.8946 7.48327 14.166L6.55699 13.207C6.05405 13.6927 5.38045 13.9615 4.68126 13.9554L4.66967 15.2887ZM7.49154 14.1579L8.63154 13.0179L7.68873 12.0751L6.54873 13.2151L7.49154 14.1579Z" fill="#D8D8DC"/>
</svg>
