<svg width="24" height="24" viewBox="0 0 24 24" fill="none" xmlns="http://www.w3.org/2000/svg">
<path d="M11 8H13V14H11V8ZM13 19.92C12.67 19.97 12.34 20 12 20C8.13 20 5 16.87 5 13C5 9.13 8.13 6 12 6C14.44 6 16.59 7.26 17.85 9.15C18.22 9.06 18.6 9 19 9C19.39 9 19.76 9.06 20.12 9.14C19.82 8.5 19.46 7.93 19.03 7.39L20.45 5.97C20 5.46 19.55 5 19.04 4.56L17.62 6C16.07 4.74 14.12 4 12 4C9.61305 4 7.32387 4.94821 5.63604 6.63604C3.94821 8.32387 3 10.6131 3 13C3 15.3869 3.94821 17.6761 5.63604 19.364C7.32387 21.0518 9.61305 22 12 22C12.42 22 12.83 21.96 13.24 21.91C13.09 21.53 13 21.12 13 20.7V19.92ZM15 1H9V3H15V1ZM21.8 16H17.5V13.5C17.5 12.7 18.2 12.2 19 12.2C19.8 12.2 20.5 12.7 20.5 13.5V14H21.8V13.5C21.8 12.1 20.4 11 19 11C17.6 11 16.2 12.1 16.2 13.5V16C15.6 16 15 16.6 15 17.2V20.7C15 21.4 15.6 22 16.2 22H21.7C22.4 22 23 21.4 23 20.8V17.3C23 16.6 22.4 16 21.8 16Z" fill="white"/>
</svg>
