<svg width="25" height="22" viewBox="0 0 25 22" fill="none" xmlns="http://www.w3.org/2000/svg">
<path d="M24.3681 0.428151C24.1174 0.217178 23.8138 0.0776092 23.4896 0.0242792C23.1654 -0.0290509 22.8327 0.00585081 22.5269 0.125275L1.67472 8.25806C1.30898 8.39644 0.999178 8.65038 0.793028 8.98077C0.586878 9.31117 0.495807 9.69969 0.533839 10.0865C0.567769 10.4732 0.727015 10.8386 0.987697 11.1278C1.24838 11.417 1.59645 11.6145 1.97971 11.6907L7.27746 12.7339V19.3074C7.27727 19.663 7.38346 20.0107 7.58256 20.3063C7.78166 20.6019 8.0647 20.8321 8.39575 20.9676C8.61484 21.0552 8.84863 21.1009 9.08479 21.1023C9.32217 21.1031 9.55733 21.0569 9.7765 20.9664C9.99568 20.8758 10.1945 20.7428 10.3612 20.575L13.2981 17.6697L17.7374 21.551C18.0651 21.838 18.4865 21.9974 18.9235 21.9997C19.1156 22.0036 19.3069 21.9732 19.4883 21.9099C19.7864 21.8163 20.0547 21.6469 20.2666 21.4187C20.4786 21.1905 20.6269 20.9113 20.6969 20.6087L24.9442 2.18932C25.0184 1.87149 25.004 1.53957 24.9025 1.22926C24.801 0.918948 24.6162 0.641985 24.3681 0.428151ZM7.96651 11.04L2.34117 9.92949L18.1102 3.77101L7.96651 11.04ZM9.08479 19.3074V13.9903L11.9313 16.4806L9.08479 19.3074ZM18.9348 20.2048L9.627 12.0721L23.0352 2.45854L18.9348 20.2048Z" fill="white"/>
</svg>
