<svg width="20" height="18" viewBox="0 0 20 18" fill="currentColor" xmlns="http://www.w3.org/2000/svg">
<path d="M6.51009 17H6.43009C4.81845 16.9859 3.23012 16.6136 1.78009 15.91C1.51336 15.7847 1.29375 15.5773 1.1534 15.3182C1.01304 15.0591 0.959318 14.7619 1.00009 14.47C1.04444 14.1762 1.18048 13.9039 1.3888 13.692C1.59712 13.4801 1.86706 13.3394 2.16009 13.29C3.0587 13.1701 3.92318 12.8672 4.70009 12.4C3.35125 11.3454 2.31284 9.94559 1.69491 8.34883C1.07698 6.75206 0.902543 5.01786 1.19009 3.33002C1.22908 3.06267 1.34406 2.81216 1.52134 2.60828C1.69862 2.4044 1.93075 2.25575 2.19009 2.18002C2.44241 2.10078 2.71244 2.09739 2.96666 2.17028C3.22088 2.24317 3.4481 2.38912 3.62009 2.59002C4.20409 3.3558 4.93799 3.99458 5.777 4.46739C6.61601 4.94019 7.54255 5.2371 8.50009 5.34002C8.54583 4.16187 9.05213 3.04874 9.91009 2.24002C10.3385 1.82979 10.8443 1.50893 11.3979 1.29613C11.9516 1.08333 12.542 0.982838 13.1349 1.00052C13.7278 1.01821 14.3112 1.15371 14.8512 1.39913C15.3912 1.64455 15.8769 1.99499 16.2801 2.43002C16.3851 2.52289 16.5156 2.58207 16.6547 2.5999C16.7938 2.61773 16.935 2.59339 17.0601 2.53002C17.2985 2.41757 17.564 2.37524 17.8256 2.40796C18.0872 2.44069 18.3341 2.54713 18.5374 2.71487C18.7408 2.8826 18.8923 3.10471 18.9742 3.35528C19.0561 3.60585 19.0651 3.87454 19.0001 4.13002C18.7694 5.08014 18.3324 5.96781 17.7201 6.73002C17.5851 9.57477 16.331 12.2508 14.231 14.1746C12.1311 16.0985 9.35576 17.1141 6.51009 17ZM6.51009 15H6.59009C7.75276 15.04 8.9118 14.8488 10 14.4375C11.0882 14.0262 12.084 13.4029 12.9295 12.6039C13.7751 11.8049 14.4536 10.8459 14.9257 9.78271C15.3979 8.71948 15.6543 7.57309 15.6801 6.41002C15.6966 6.09127 15.828 5.7893 16.0501 5.56002C16.294 5.25127 16.502 4.91578 16.6701 4.56002C16.3098 4.56071 15.9535 4.48535 15.6244 4.33888C15.2952 4.19241 15.0007 3.97812 14.7601 3.71002C14.5287 3.48057 14.2538 3.2996 13.9516 3.17768C13.6494 3.05577 13.3259 2.99537 13.0001 3.00002C12.671 2.99151 12.3435 3.04808 12.0363 3.16649C11.7291 3.2849 11.4483 3.46282 11.2101 3.69002C10.8887 3.99502 10.653 4.37909 10.5266 4.80379C10.4003 5.22849 10.3877 5.67892 10.4901 6.11002L10.7501 7.25002L9.58009 7.33002C8.38119 7.42778 7.17535 7.26378 6.04611 6.84938C4.91686 6.43498 3.89118 5.78007 3.04009 4.93002C3.00359 6.24642 3.33289 7.54715 3.99139 8.68759C4.64988 9.82804 5.61176 10.7635 6.77009 11.39L7.72009 11.93L7.09009 12.83C6.40878 13.7235 5.47528 14.3923 4.41009 14.75C5.0934 14.9213 5.79566 15.0053 6.50009 15H6.51009Z" fill="currentColor"/>
</svg>
