<svg width="95" height="32" viewBox="0 0 95 32" fill="none" xmlns="http://www.w3.org/2000/svg">
<g filter="url(#filter0_b_169_6301)">
<rect width="95" height="32" rx="16" fill="white" fill-opacity="0.1"/>
<path d="M16.168 12.6L19.396 21H20.584L23.824 12.6H22.768L19.996 19.896L17.224 12.6H16.168ZM26.2833 15.072C24.6033 15.072 23.4633 16.404 23.4633 18.132C23.4633 19.884 24.6273 21.18 26.3673 21.18C27.7113 21.18 28.8393 20.268 29.0073 19.008L28.0953 18.84C27.9633 19.74 27.2673 20.304 26.3673 20.304C25.2513 20.304 24.4713 19.5 24.3873 18.252H28.8513V17.76C28.8513 16.176 27.8313 15.072 26.2833 15.072ZM24.4353 17.436C24.6633 16.524 25.3593 15.924 26.2833 15.924C27.2433 15.924 27.8913 16.56 27.9273 17.436H24.4353ZM30.2094 21H31.1694V17.724C31.1694 16.62 31.6974 15.96 32.4774 15.96C33.1134 15.96 33.5094 16.392 33.5094 17.208C33.5094 17.34 33.5094 17.436 33.4974 17.508L34.4694 17.376V17.136C34.4694 15.804 33.7614 15.06 32.7054 15.06C32.0334 15.06 31.5174 15.336 31.1694 15.876V15.24H30.2094V21ZM35.4946 21H36.4546V15.24H35.4946V21ZM35.9746 12.888C35.5906 12.888 35.2906 13.188 35.2906 13.572C35.2906 13.944 35.5906 14.256 35.9746 14.256C36.3466 14.256 36.6586 13.944 36.6586 13.572C36.6586 13.188 36.3466 12.888 35.9746 12.888ZM37.4387 16.104H38.5307V21H39.4907V16.104H42.5867V15.24H39.4907V14.616C39.4907 13.836 39.9827 13.308 40.7147 13.308C41.3747 13.308 41.7947 13.74 41.7827 14.448L42.6827 14.244C42.6467 13.152 41.8547 12.42 40.7147 12.42C39.4067 12.42 38.5307 13.356 38.5307 14.652V15.24H37.4387V16.104ZM43.5571 21H44.5171V15.24H43.5571V21ZM44.0371 12.888C43.6531 12.888 43.3531 13.188 43.3531 13.572C43.3531 13.944 43.6531 14.256 44.0371 14.256C44.4091 14.256 44.7211 13.944 44.7211 13.572C44.7211 13.188 44.4091 12.888 44.0371 12.888ZM48.5372 15.072C46.8572 15.072 45.7172 16.404 45.7172 18.132C45.7172 19.884 46.8812 21.18 48.6212 21.18C49.9652 21.18 51.0932 20.268 51.2612 19.008L50.3492 18.84C50.2172 19.74 49.5212 20.304 48.6212 20.304C47.5052 20.304 46.7252 19.5 46.6412 18.252H51.1052V17.76C51.1052 16.176 50.0852 15.072 48.5372 15.072ZM46.6892 17.436C46.9172 16.524 47.6132 15.924 48.5372 15.924C49.4972 15.924 50.1452 16.56 50.1812 17.436H46.6892ZM54.8513 15.06C53.2673 15.06 52.1273 16.416 52.1273 18.132C52.1273 19.848 53.2673 21.18 54.8513 21.18C55.7753 21.18 56.4953 20.796 56.9633 20.124V21H57.9233V12.6H56.9633V16.128C56.4833 15.456 55.7633 15.06 54.8513 15.06ZM55.0193 20.256C53.8913 20.256 53.0873 19.356 53.0873 18.132C53.0873 16.896 53.9033 15.984 55.0193 15.984C56.1593 15.984 56.9633 16.896 56.9633 18.132C56.9633 19.368 56.1593 20.256 55.0193 20.256Z" fill="white"/>
<circle cx="71.0003" cy="16.0001" r="5.33333" fill="white"/>
<path d="M78.3337 15.9999L76.707 14.1466L76.9337 11.6933L74.527 11.1466L73.267 9.02661L71.0003 9.99994L68.7337 9.02661L67.4737 11.1466L65.067 11.6866L65.2937 14.1399L63.667 15.9999L65.2937 17.8533L65.067 20.3133L67.4737 20.8599L68.7337 22.9799L71.0003 21.9999L73.267 22.9733L74.527 20.8533L76.9337 20.3066L76.707 17.8533L78.3337 15.9999ZM69.667 19.3333L67.0003 16.6666L67.9403 15.7266L69.667 17.4466L74.0603 13.0533L75.0003 13.9999L69.667 19.3333Z" fill="#00B2EC"/>
</g>
<defs>
<filter id="filter0_b_169_6301" x="-20" y="-20" width="135" height="72" filterUnits="userSpaceOnUse" color-interpolation-filters="sRGB">
<feFlood flood-opacity="0" result="BackgroundImageFix"/>
<feGaussianBlur in="BackgroundImageFix" stdDeviation="10"/>
<feComposite in2="SourceAlpha" operator="in" result="effect1_backgroundBlur_169_6301"/>
<feBlend mode="normal" in="SourceGraphic" in2="effect1_backgroundBlur_169_6301" result="shape"/>
</filter>
</defs>
</svg>
