<svg id="SvgjsSvg1017" width="256" height="256" xmlns="http://www.w3.org/2000/svg" version="1.1" xmlns:xlink="http://www.w3.org/1999/xlink" xmlns:svgjs="http://svgjs.com/svgjs"><defs id="SvgjsDefs1018"></defs><g id="SvgjsG1019"><svg xmlns="http://www.w3.org/2000/svg" viewBox="0 0 64 64" width="256" height="256"><path d="M32,24c-3.859,0-7,3.589-7,8s3.141,8,7,8,7-3.589,7-8S35.859,24,32,24Zm0,14c-2.757,0-5-2.691-5-6s2.243-6,5-6,5,2.691,5,6S34.757,38,32,38Z" fill="#ffffff" class="color000 svgShape"></path><rect width="2" height="2" x="38" y="57" fill="#ffffff" class="color000 svgShape"></rect><rect width="2" height="2" x="35" y="57" fill="#ffffff" class="color000 svgShape"></rect><rect width="2" height="2" x="38" y="54" fill="#ffffff" class="color000 svgShape"></rect><path d="M61.707,2.293a1,1,0,0,0-1.022-.242l-6.371,2.12c-.012,0-.023.013-.035.018s-.044.021-.066.031a.985.985,0,0,0-.257.171c-.011.01-.024.013-.034.023l-7.069,7.078c-.333-.323-.675-.638-1.032-.94l.871-3.058a1,1,0,0,0-.462-1.14l-3.46-2a1,1,0,0,0-1.218.169L39.34,6.8a21.722,21.722,0,0,0-3.6-.953l-.769-3.091A1,1,0,0,0,34,2H30a1,1,0,0,0-.971.758L28.26,5.849a21.722,21.722,0,0,0-3.6.953L22.448,4.523a1,1,0,0,0-1.218-.169l-3.46,2a1,1,0,0,0-.462,1.14l.871,3.058c-.359.3-.7.619-1.032.939L10.078,4.414c-.01-.01-.023-.013-.034-.023a.968.968,0,0,0-.256-.17c-.023-.011-.043-.023-.066-.032s-.023-.013-.036-.018L3.315,2.051A1,1,0,0,0,2.052,3.316l2.12,6.36c0,.014.014.026.019.04s.022.044.032.067a.988.988,0,0,0,.168.25c.009.01.012.024.022.034L9.8,15.456l-.447.774a1,1,0,0,0,.169,1.217L11.8,19.66a21.742,21.742,0,0,0-.953,3.6l-3.091.771A1,1,0,0,0,7,25v4a1,1,0,0,0,.758.97l3.091.771a21.727,21.727,0,0,0,.942,3.563l-.765-.272a3.019,3.019,0,0,0-4.2,2.758,3.014,3.014,0,0,0,1.826,2.759l11.892,5.095.452.664V61a1,1,0,0,0,1,1H42a1,1,0,0,0,1-1V45.308l.452-.664,11.9-5.1A3.005,3.005,0,0,0,55.273,34a2.937,2.937,0,0,0-2.241.01l-.822.293a21.829,21.829,0,0,0,.941-3.561l3.091-.771A1,1,0,0,0,57,29V25a1,1,0,0,0-.758-.97l-3.091-.771a21.742,21.742,0,0,0-.953-3.6l2.279-2.213a1,1,0,0,0,.169-1.217l-.447-.774,5.388-5.389c.01-.01.013-.023.022-.033a.993.993,0,0,0,.168-.251c.011-.023.023-.043.032-.067s.014-.026.019-.04l2.12-6.36A1,1,0,0,0,61.707,2.293ZM49.788,12.8l-1.342.382c-.071-.084-.143-.155-.215-.237l6.4-6.408.712.709ZM59.419,4.58l-.977,2.929L56.485,5.557ZM14.212,12.8,8.657,7.243l.712-.709,6.4,6.409c-.071.08-.145.153-.215.236Zm-6.7-7.24L5.558,7.509,4.581,4.58Zm-.98,3.8.707-.7,4.113,4.113h0l-.517.895ZM53.767,35.868a.992.992,0,0,1,.764-.012,1.006,1.006,0,0,1,.551.54,1,1,0,0,1-.525,1.314L42.4,42.92a1,1,0,0,0-.432.357l-.79,1.16A1,1,0,0,0,41,45V60H23V45a1,1,0,0,0-.174-.563l-.79-1.16a1,1,0,0,0-.432-.357L9.448,37.713a1.012,1.012,0,0,1-.618-.923,1.033,1.033,0,0,1,.088-.394,1.006,1.006,0,0,1,.551-.54,1.039,1.039,0,0,1,.823.036l1.4.5.017.006,9.959,3.547A1,1,0,0,0,22,40h3.937c.11.216.232.436.37.661l.006.01a6.523,6.523,0,0,0,11.375,0l0-.01c.138-.225.26-.445.37-.661H42a1,1,0,0,0,.335-.058L52.273,36.4l.042-.016ZM38.9,38H37.42a1,1,0,0,0-.929.628,6.6,6.6,0,0,1-.5.982,4.529,4.529,0,0,1-7.984,0,6.6,6.6,0,0,1-.5-.982A1,1,0,0,0,26.58,38H25.1A12.9,12.9,0,0,1,19,27a13.15,13.15,0,0,1,.576-3.846,12.909,12.909,0,0,1,1.2-2.725,13.054,13.054,0,0,1,1.684-2.259,12.989,12.989,0,0,1,19.074,0,12.956,12.956,0,0,1,2.886,4.98A13.173,13.173,0,0,1,45,27,12.9,12.9,0,0,1,38.9,38ZM50.334,18.683A1,1,0,0,0,50.1,19.77a19.8,19.8,0,0,1,1.178,4.445,1,1,0,0,0,.747.825L55,25.781v2.438l-2.973.741a1,1,0,0,0-.747.825A19.8,19.8,0,0,1,50.1,34.23a1,1,0,0,0,.036.81l-7.75,2.76a15,15,0,0,0,3.948-15.235A15.008,15.008,0,0,0,43,16.81a15.015,15.015,0,0,0-23.945,2.6,14.876,14.876,0,0,0-1.394,3.153A15,15,0,0,0,21.612,37.8l-7.751-2.759a1,1,0,0,0,.037-.811,19.8,19.8,0,0,1-1.178-4.445,1,1,0,0,0-.747-.825L9,28.219V25.781l2.973-.741a1,1,0,0,0,.747-.825A19.8,19.8,0,0,1,13.9,19.77a1,1,0,0,0-.232-1.087l-2.191-2.128,1.219-2.11,2.943.837a.993.993,0,0,0,1.055-.34,17.75,17.75,0,0,1,1.191-1.351,18.412,18.412,0,0,1,2.058-1.9,1,1,0,0,0,.341-1.058L19.444,7.7l2.112-1.22,2.127,2.191a1,1,0,0,0,1.088.232,19.785,19.785,0,0,1,4.445-1.18,1,1,0,0,0,.825-.747L30.781,4h2.438l.74,2.972a1,1,0,0,0,.825.747A19.785,19.785,0,0,1,39.229,8.9a1,1,0,0,0,1.088-.232l2.127-2.191L44.556,7.7l-.838,2.94a1,1,0,0,0,.341,1.058,18.527,18.527,0,0,1,2.076,1.916,17.509,17.509,0,0,1,1.173,1.332,1,1,0,0,0,1.055.34l2.943-.837,1.219,2.11Zm2.312-5.914h0l4.113-4.113.707.705-4.3,4.3Z" fill="#ffffff" class="color000 svgShape"></path></svg></g></svg>