<svg width="15" height="15" viewBox="0 0 15 15" fill="none" xmlns="http://www.w3.org/2000/svg">
<path d="M5.40767 14.8236L5.40767 0.744006H8.96733L8.96733 14.8236H5.40767ZM0.147727 9.56361L0.147727 6.00395H14.2273V9.56361H0.147727Z" fill="#01BC35"/>
<path d="M5.40767 14.8236H4.40767V15.8236H5.40767V14.8236ZM5.40767 0.744006V-0.255994H4.40767V0.744006H5.40767ZM8.96733 0.744006H9.96733V-0.255994H8.96733V0.744006ZM8.96733 14.8236V15.8236H9.96733V14.8236H8.96733ZM0.147727 9.56361H-0.852273V10.5636H0.147727V9.56361ZM0.147727 6.00395V5.00395H-0.852273V6.00395H0.147727ZM14.2273 6.00395H15.2273V5.00395H14.2273V6.00395ZM14.2273 9.56361V10.5636H15.2273V9.56361H14.2273ZM6.40767 14.8236L6.40767 0.744006H4.40767L4.40767 14.8236H6.40767ZM5.40767 1.74401H8.96733V-0.255994H5.40767V1.74401ZM7.96733 0.744006L7.96733 14.8236H9.96733L9.96733 0.744006H7.96733ZM8.96733 13.8236H5.40767V15.8236H8.96733V13.8236ZM1.14773 9.56361L1.14773 6.00395H-0.852273L-0.852273 9.56361H1.14773ZM0.147727 7.00395H14.2273V5.00395H0.147727V7.00395ZM13.2273 6.00395V9.56361H15.2273V6.00395H13.2273ZM14.2273 8.56361H0.147727L0.147727 10.5636H14.2273V8.56361Z" fill="white"/>
</svg>
