<svg version="1.1" id="_x32_" xmlns="http://www.w3.org/2000/svg" xmlns:xlink="http://www.w3.org/1999/xlink" width="125px" height="125px" viewBox="0 0 512 512" xml:space="preserve" fill="#000000"><g id="SVGRepo_bgCarrier" stroke-width="0"></g><g id="SVGRepo_tracerCarrier" stroke-linecap="round" stroke-linejoin="round"></g><g id="SVGRepo_iconCarrier"> <style type="text/css">  .st0{fill:#ffffff;}  </style> <g> <path class="st0" d="M511.718,58.649c-69.453-18.906-167.312-11.344-227.296,113.516c-6.313,15.156-14.547,21.344-14.547,21.344 c-3.406,4.984-8.484,7.859-13.859,7.859c-5.359,0-10.453-2.875-13.859-7.859c0,0-8.25-6.188-14.547-21.344 C167.609,47.305,69.75,39.743,0.281,58.649c0,0-8.594,93.922,69.469,143.797c94.703,60.547,157.859,15.141,157.859,60.547 c0,30.281,0,102.156,0,102.156h28.406h28.406c0,0,0-71.875,0-102.156c0-45.406,63.141,0,157.843-60.547 C520.327,152.571,511.718,58.649,511.718,58.649z"></path> <rect x="56" y="397.149" class="st0" width="400" height="64"></rect> </g> </g></svg>