<svg width="17" height="17" viewBox="0 0 17 17" fill="none" xmlns="http://www.w3.org/2000/svg">
<mask id="path-1-inside-1_2311_1984" fill="white">
<path d="M8.74108 0.50007C8.58988 0.502433 8.44579 0.564691 8.34044 0.673179C8.23509 0.781667 8.17708 0.927521 8.17915 1.07873V2.7913C8.17808 2.86695 8.19206 2.94205 8.22027 3.01225C8.24847 3.08245 8.29035 3.14634 8.34347 3.20021C8.39658 3.25408 8.45987 3.29686 8.52966 3.32606C8.59945 3.35525 8.67435 3.37029 8.75 3.37029C8.82565 3.37029 8.90055 3.35525 8.97034 3.32606C9.04013 3.29686 9.10342 3.25408 9.15654 3.20021C9.20965 3.14634 9.25153 3.08245 9.27974 3.01225C9.30794 2.94205 9.32192 2.86695 9.32085 2.7913V1.07873C9.32189 1.00236 9.3076 0.926549 9.27882 0.855796C9.25004 0.785044 9.20736 0.720787 9.1533 0.666828C9.09924 0.61287 9.0349 0.570309 8.96409 0.541665C8.89329 0.513021 8.81745 0.498877 8.74108 0.50007ZM3.49642 2.67646C3.38295 2.67671 3.27213 2.71077 3.17811 2.77428C3.08409 2.8378 3.01112 2.92789 2.96853 3.03306C2.92593 3.13823 2.91564 3.25371 2.93897 3.36475C2.9623 3.47579 3.01819 3.57737 3.0995 3.65651L4.31032 4.86735C4.36292 4.92213 4.42593 4.96587 4.49564 4.99601C4.56536 5.02614 4.64039 5.04206 4.71633 5.04283C4.79228 5.0436 4.86761 5.02921 4.93793 5.0005C5.00824 4.97179 5.07212 4.92934 5.12583 4.87564C5.17953 4.82193 5.22198 4.75805 5.25069 4.68774C5.27939 4.61742 5.29378 4.54209 5.29301 4.46614C5.29224 4.39019 5.27632 4.31516 5.24619 4.24545C5.21606 4.17573 5.17232 4.11272 5.11754 4.06012L3.90671 2.84928C3.85339 2.79446 3.78959 2.75091 3.7191 2.72123C3.64862 2.69154 3.57289 2.67632 3.49642 2.67646ZM13.9857 2.67646C13.8374 2.68088 13.6967 2.74286 13.5933 2.84928L12.3825 4.06012C12.3277 4.11272 12.2839 4.17573 12.2538 4.24545C12.2237 4.31516 12.2078 4.39019 12.207 4.46614C12.2062 4.54208 12.2206 4.61742 12.2493 4.68774C12.278 4.75805 12.3205 4.82193 12.3742 4.87564C12.4279 4.92934 12.4918 4.97179 12.5621 5.0005C12.6324 5.02921 12.7077 5.0436 12.7837 5.04283C12.8596 5.04205 12.9346 5.02614 13.0044 4.996C13.0741 4.96587 13.1371 4.92213 13.1897 4.86735L14.4005 3.65651C14.483 3.57632 14.5393 3.47309 14.5621 3.36033C14.585 3.24758 14.5732 3.13056 14.5283 3.02462C14.4835 2.91868 14.4077 2.82875 14.3109 2.76662C14.2141 2.7045 14.1007 2.67307 13.9857 2.67646ZM8.75 4.50387C7.69021 4.50387 6.67383 4.92488 5.92445 5.67427C5.17506 6.42367 4.75407 7.44007 4.75407 8.49987C4.75407 9.55968 5.17506 10.5761 5.92445 11.3255C6.67383 12.0749 7.69021 12.4959 8.75 12.4959C9.80979 12.4959 10.8262 12.0749 11.5756 11.3255C12.3249 10.5761 12.7459 9.55968 12.7459 8.49987C12.7459 7.44007 12.3249 6.42367 11.5756 5.67427C10.8262 4.92488 9.80979 4.50387 8.75 4.50387ZM1.32898 7.92902C1.25333 7.92795 1.17823 7.94192 1.10804 7.97013C1.03784 7.99834 0.973949 8.04022 0.920079 8.09333C0.866208 8.14645 0.823431 8.20974 0.794233 8.27953C0.765036 8.34932 0.75 8.42422 0.75 8.49987C0.75 8.57553 0.765036 8.65042 0.794233 8.72021C0.823431 8.79001 0.866208 8.8533 0.920079 8.90641C0.973949 8.95953 1.03784 9.00141 1.10804 9.02962C1.17823 9.05782 1.25333 9.0718 1.32898 9.07073H3.04152C3.11717 9.0718 3.19227 9.05782 3.26246 9.02962C3.33266 9.00141 3.39655 8.95953 3.45042 8.90641C3.50429 8.8533 3.54707 8.79001 3.57627 8.72021C3.60546 8.65042 3.6205 8.57553 3.6205 8.49987C3.6205 8.42422 3.60546 8.34932 3.57627 8.27953C3.54707 8.20974 3.50429 8.14645 3.45042 8.09333C3.39655 8.04022 3.33266 7.99834 3.26246 7.97013C3.19227 7.94192 3.11717 7.92795 3.04152 7.92902H1.32898ZM14.4585 7.92902C14.3828 7.92795 14.3077 7.94192 14.2375 7.97013C14.1673 7.99834 14.1034 8.04022 14.0496 8.09333C13.9957 8.14645 13.9529 8.20974 13.9237 8.27953C13.8945 8.34932 13.8795 8.42422 13.8795 8.49987C13.8795 8.57553 13.8945 8.65042 13.9237 8.72021C13.9529 8.79001 13.9957 8.8533 14.0496 8.90641C14.1034 8.95953 14.1673 9.00141 14.2375 9.02962C14.3077 9.05782 14.3828 9.0718 14.4585 9.07073H16.171C16.2467 9.0718 16.3218 9.05782 16.392 9.02962C16.4622 9.00141 16.5261 8.95953 16.5799 8.90641C16.6338 8.8533 16.6766 8.79001 16.7058 8.72021C16.735 8.65042 16.75 8.57553 16.75 8.49987C16.75 8.42422 16.735 8.34932 16.7058 8.27953C16.6766 8.20974 16.6338 8.14645 16.5799 8.09333C16.5261 8.04022 16.4622 7.99834 16.392 7.97013C16.3218 7.94192 16.2467 7.92795 16.171 7.92902H14.4585ZM4.70278 11.9596C4.55447 11.964 4.41371 12.026 4.31032 12.1324L3.0995 13.3432C3.04471 13.3958 3.00098 13.4588 2.97084 13.5286C2.94071 13.5983 2.9248 13.6733 2.92402 13.7493C2.92325 13.8252 2.93764 13.9005 2.96635 13.9709C2.99506 14.0412 3.03751 14.105 3.09121 14.1588C3.14491 14.2125 3.20879 14.2549 3.27911 14.2836C3.34942 14.3123 3.42476 14.3267 3.5007 14.3259C3.57665 14.3252 3.65168 14.3093 3.72139 14.2791C3.79111 14.249 3.85411 14.2052 3.90671 14.1505L5.11754 12.9396C5.20002 12.8594 5.25637 12.7562 5.27918 12.6434C5.30199 12.5307 5.2902 12.4137 5.24537 12.3077C5.20053 12.2018 5.12474 12.1119 5.02792 12.0497C4.9311 11.9876 4.81777 11.9562 4.70278 11.9596ZM12.7805 11.9596C12.6669 11.9596 12.556 11.9935 12.4618 12.0569C12.3676 12.1204 12.2944 12.2104 12.2517 12.3157C12.209 12.4209 12.1986 12.5364 12.2219 12.6476C12.2452 12.7587 12.3011 12.8604 12.3825 12.9396L13.5933 14.1505C13.6459 14.2052 13.7089 14.249 13.7786 14.2791C13.8483 14.3092 13.9234 14.3252 13.9993 14.3259C14.0752 14.3267 14.1506 14.3123 14.2209 14.2836C14.2912 14.2549 14.3551 14.2125 14.4088 14.1588C14.4625 14.105 14.5049 14.0412 14.5336 13.9708C14.5624 13.9005 14.5767 13.8252 14.576 13.7493C14.5752 13.6733 14.5593 13.5983 14.5292 13.5286C14.499 13.4588 14.4553 13.3958 14.4005 13.3432L13.1897 12.1324C13.1365 12.0777 13.0729 12.0342 13.0026 12.0046C12.9323 11.9749 12.8568 11.9596 12.7805 11.9596ZM8.74108 13.6298C8.58988 13.6321 8.44579 13.6944 8.34044 13.8029C8.23509 13.9114 8.17708 14.0572 8.17915 14.2084V15.921C8.17808 15.9967 8.19206 16.0718 8.22027 16.142C8.24847 16.2122 8.29035 16.276 8.34347 16.3299C8.39658 16.3838 8.45987 16.4266 8.52966 16.4558C8.59945 16.485 8.67435 16.5 8.75 16.5C8.82565 16.5 8.90055 16.485 8.97034 16.4558C9.04013 16.4266 9.10342 16.3838 9.15654 16.3299C9.20965 16.276 9.25153 16.2122 9.27974 16.142C9.30794 16.0718 9.32192 15.9967 9.32085 15.921V14.2084C9.32189 14.1321 9.3076 14.0563 9.27882 13.9855C9.25004 13.9148 9.20736 13.8505 9.1533 13.7965C9.09924 13.7426 9.0349 13.7 8.96409 13.6714C8.89329 13.6427 8.81745 13.6286 8.74108 13.6298Z"/>
</mask>
<path d="M8.74108 0.50007C8.58988 0.502433 8.44579 0.564691 8.34044 0.673179C8.23509 0.781667 8.17708 0.927521 8.17915 1.07873V2.7913C8.17808 2.86695 8.19206 2.94205 8.22027 3.01225C8.24847 3.08245 8.29035 3.14634 8.34347 3.20021C8.39658 3.25408 8.45987 3.29686 8.52966 3.32606C8.59945 3.35525 8.67435 3.37029 8.75 3.37029C8.82565 3.37029 8.90055 3.35525 8.97034 3.32606C9.04013 3.29686 9.10342 3.25408 9.15654 3.20021C9.20965 3.14634 9.25153 3.08245 9.27974 3.01225C9.30794 2.94205 9.32192 2.86695 9.32085 2.7913V1.07873C9.32189 1.00236 9.3076 0.926549 9.27882 0.855796C9.25004 0.785044 9.20736 0.720787 9.1533 0.666828C9.09924 0.61287 9.0349 0.570309 8.96409 0.541665C8.89329 0.513021 8.81745 0.498877 8.74108 0.50007ZM3.49642 2.67646C3.38295 2.67671 3.27213 2.71077 3.17811 2.77428C3.08409 2.8378 3.01112 2.92789 2.96853 3.03306C2.92593 3.13823 2.91564 3.25371 2.93897 3.36475C2.9623 3.47579 3.01819 3.57737 3.0995 3.65651L4.31032 4.86735C4.36292 4.92213 4.42593 4.96587 4.49564 4.99601C4.56536 5.02614 4.64039 5.04206 4.71633 5.04283C4.79228 5.0436 4.86761 5.02921 4.93793 5.0005C5.00824 4.97179 5.07212 4.92934 5.12583 4.87564C5.17953 4.82193 5.22198 4.75805 5.25069 4.68774C5.27939 4.61742 5.29378 4.54209 5.29301 4.46614C5.29224 4.39019 5.27632 4.31516 5.24619 4.24545C5.21606 4.17573 5.17232 4.11272 5.11754 4.06012L3.90671 2.84928C3.85339 2.79446 3.78959 2.75091 3.7191 2.72123C3.64862 2.69154 3.57289 2.67632 3.49642 2.67646ZM13.9857 2.67646C13.8374 2.68088 13.6967 2.74286 13.5933 2.84928L12.3825 4.06012C12.3277 4.11272 12.2839 4.17573 12.2538 4.24545C12.2237 4.31516 12.2078 4.39019 12.207 4.46614C12.2062 4.54208 12.2206 4.61742 12.2493 4.68774C12.278 4.75805 12.3205 4.82193 12.3742 4.87564C12.4279 4.92934 12.4918 4.97179 12.5621 5.0005C12.6324 5.02921 12.7077 5.0436 12.7837 5.04283C12.8596 5.04205 12.9346 5.02614 13.0044 4.996C13.0741 4.96587 13.1371 4.92213 13.1897 4.86735L14.4005 3.65651C14.483 3.57632 14.5393 3.47309 14.5621 3.36033C14.585 3.24758 14.5732 3.13056 14.5283 3.02462C14.4835 2.91868 14.4077 2.82875 14.3109 2.76662C14.2141 2.7045 14.1007 2.67307 13.9857 2.67646ZM8.75 4.50387C7.69021 4.50387 6.67383 4.92488 5.92445 5.67427C5.17506 6.42367 4.75407 7.44007 4.75407 8.49987C4.75407 9.55968 5.17506 10.5761 5.92445 11.3255C6.67383 12.0749 7.69021 12.4959 8.75 12.4959C9.80979 12.4959 10.8262 12.0749 11.5756 11.3255C12.3249 10.5761 12.7459 9.55968 12.7459 8.49987C12.7459 7.44007 12.3249 6.42367 11.5756 5.67427C10.8262 4.92488 9.80979 4.50387 8.75 4.50387ZM1.32898 7.92902C1.25333 7.92795 1.17823 7.94192 1.10804 7.97013C1.03784 7.99834 0.973949 8.04022 0.920079 8.09333C0.866208 8.14645 0.823431 8.20974 0.794233 8.27953C0.765036 8.34932 0.75 8.42422 0.75 8.49987C0.75 8.57553 0.765036 8.65042 0.794233 8.72021C0.823431 8.79001 0.866208 8.8533 0.920079 8.90641C0.973949 8.95953 1.03784 9.00141 1.10804 9.02962C1.17823 9.05782 1.25333 9.0718 1.32898 9.07073H3.04152C3.11717 9.0718 3.19227 9.05782 3.26246 9.02962C3.33266 9.00141 3.39655 8.95953 3.45042 8.90641C3.50429 8.8533 3.54707 8.79001 3.57627 8.72021C3.60546 8.65042 3.6205 8.57553 3.6205 8.49987C3.6205 8.42422 3.60546 8.34932 3.57627 8.27953C3.54707 8.20974 3.50429 8.14645 3.45042 8.09333C3.39655 8.04022 3.33266 7.99834 3.26246 7.97013C3.19227 7.94192 3.11717 7.92795 3.04152 7.92902H1.32898ZM14.4585 7.92902C14.3828 7.92795 14.3077 7.94192 14.2375 7.97013C14.1673 7.99834 14.1034 8.04022 14.0496 8.09333C13.9957 8.14645 13.9529 8.20974 13.9237 8.27953C13.8945 8.34932 13.8795 8.42422 13.8795 8.49987C13.8795 8.57553 13.8945 8.65042 13.9237 8.72021C13.9529 8.79001 13.9957 8.8533 14.0496 8.90641C14.1034 8.95953 14.1673 9.00141 14.2375 9.02962C14.3077 9.05782 14.3828 9.0718 14.4585 9.07073H16.171C16.2467 9.0718 16.3218 9.05782 16.392 9.02962C16.4622 9.00141 16.5261 8.95953 16.5799 8.90641C16.6338 8.8533 16.6766 8.79001 16.7058 8.72021C16.735 8.65042 16.75 8.57553 16.75 8.49987C16.75 8.42422 16.735 8.34932 16.7058 8.27953C16.6766 8.20974 16.6338 8.14645 16.5799 8.09333C16.5261 8.04022 16.4622 7.99834 16.392 7.97013C16.3218 7.94192 16.2467 7.92795 16.171 7.92902H14.4585ZM4.70278 11.9596C4.55447 11.964 4.41371 12.026 4.31032 12.1324L3.0995 13.3432C3.04471 13.3958 3.00098 13.4588 2.97084 13.5286C2.94071 13.5983 2.9248 13.6733 2.92402 13.7493C2.92325 13.8252 2.93764 13.9005 2.96635 13.9709C2.99506 14.0412 3.03751 14.105 3.09121 14.1588C3.14491 14.2125 3.20879 14.2549 3.27911 14.2836C3.34942 14.3123 3.42476 14.3267 3.5007 14.3259C3.57665 14.3252 3.65168 14.3093 3.72139 14.2791C3.79111 14.249 3.85411 14.2052 3.90671 14.1505L5.11754 12.9396C5.20002 12.8594 5.25637 12.7562 5.27918 12.6434C5.30199 12.5307 5.2902 12.4137 5.24537 12.3077C5.20053 12.2018 5.12474 12.1119 5.02792 12.0497C4.9311 11.9876 4.81777 11.9562 4.70278 11.9596ZM12.7805 11.9596C12.6669 11.9596 12.556 11.9935 12.4618 12.0569C12.3676 12.1204 12.2944 12.2104 12.2517 12.3157C12.209 12.4209 12.1986 12.5364 12.2219 12.6476C12.2452 12.7587 12.3011 12.8604 12.3825 12.9396L13.5933 14.1505C13.6459 14.2052 13.7089 14.249 13.7786 14.2791C13.8483 14.3092 13.9234 14.3252 13.9993 14.3259C14.0752 14.3267 14.1506 14.3123 14.2209 14.2836C14.2912 14.2549 14.3551 14.2125 14.4088 14.1588C14.4625 14.105 14.5049 14.0412 14.5336 13.9708C14.5624 13.9005 14.5767 13.8252 14.576 13.7493C14.5752 13.6733 14.5593 13.5983 14.5292 13.5286C14.499 13.4588 14.4553 13.3958 14.4005 13.3432L13.1897 12.1324C13.1365 12.0777 13.0729 12.0342 13.0026 12.0046C12.9323 11.9749 12.8568 11.9596 12.7805 11.9596ZM8.74108 13.6298C8.58988 13.6321 8.44579 13.6944 8.34044 13.8029C8.23509 13.9114 8.17708 14.0572 8.17915 14.2084V15.921C8.17808 15.9967 8.19206 16.0718 8.22027 16.142C8.24847 16.2122 8.29035 16.276 8.34347 16.3299C8.39658 16.3838 8.45987 16.4266 8.52966 16.4558C8.59945 16.485 8.67435 16.5 8.75 16.5C8.82565 16.5 8.90055 16.485 8.97034 16.4558C9.04013 16.4266 9.10342 16.3838 9.15654 16.3299C9.20965 16.276 9.25153 16.2122 9.27974 16.142C9.30794 16.0718 9.32192 15.9967 9.32085 15.921V14.2084C9.32189 14.1321 9.3076 14.0563 9.27882 13.9855C9.25004 13.9148 9.20736 13.8505 9.1533 13.7965C9.09924 13.7426 9.0349 13.7 8.96409 13.6714C8.89329 13.6427 8.81745 13.6286 8.74108 13.6298Z" fill="url(#paint0_linear_2311_1984)" stroke="black" stroke-width="0.2" mask="url(#path-1-inside-1_2311_1984)"/>
<defs>
<linearGradient id="paint0_linear_2311_1984" x1="0.75" y1="8.49999" x2="16.75" y2="8.49999" gradientUnits="userSpaceOnUse">
<stop stop-color="#68DAFF"/>
<stop offset="1" stop-color="#FFF576"/>
</linearGradient>
</defs>
</svg>
