<svg id="line" xmlns="http://www.w3.org/2000/svg" viewBox="0 0 64 64"><path d="M12,32a19.975,19.975,0,0,1,.461-4.235L5.284,23.613a28.023,28.023,0,0,0,0,16.777l7.179-4.141A19.97,19.97,0,0,1,12,32ZM8,34a2,2,0,1,1,2-2A2,2,0,0,1,8,34Z" id="id_101" style="fill: rgb(0, 0, 0);"></path><path d="M16.987,18.83,9.958,14.764A28.026,28.026,0,0,0,5.971,21.7l7.036,4.07A19.964,19.964,0,0,1,16.987,18.83Z" id="id_102"></path><path d="M13.011,38.242,5.973,42.3a28,28,0,0,0,3.942,6.878l7.031-4.056A19.963,19.963,0,0,1,13.011,38.242Z" id="id_103"></path><path d="M25.763,13.009v-8.3a28.01,28.01,0,0,0-14.5,8.5l7.166,4.146A19.988,19.988,0,0,1,25.763,13.009ZM20,9a2,2,0,1,1-2,2A2,2,0,0,1,20,9Z" id="id_104"></path><path d="M52.621,13.082A28,28,0,0,0,37.763,4.6v8.256a19.972,19.972,0,0,1,7.672,4.373ZM44,13a2,2,0,1,1,2-2A2,2,0,0,1,44,13Z" id="id_105"></path><path d="M35.763,12.367V4.26a27.8,27.8,0,0,0-8,.06v8.141a19.595,19.595,0,0,1,8-.094Z" id="id_106"></path><path d="M46.85,45.349l7.044,4.075a28,28,0,0,0,4.047-6.9l-7.03-4.067A19.99,19.99,0,0,1,46.85,45.349Z" id="id_107"></path><path d="M32,14A18,18,0,1,0,50,32,18.021,18.021,0,0,0,32,14ZM46.489,35.883a15,15,0,1,1-1.5-11.383A14.9,14.9,0,0,1,46.489,35.883Z" id="id_108"></path><path d="M35.365,19.443a13.08,13.08,0,0,0-3.386-.449,13.041,13.041,0,1,0,3.386.449Z" id="id_109"></path><path d="M37.763,51.145V59.4a28,28,0,0,0,14.809-8.432l-7.183-4.155A19.963,19.963,0,0,1,37.763,51.145ZM46,53a2,2,0,1,1-2-2A2,2,0,0,1,46,53Z" id="id_110"></path><path d="M58.637,23.381l-7.163,4.133a19.4,19.4,0,0,1,0,8.96l7.161,4.142a27.933,27.933,0,0,0,0-17.235ZM56,34a2,2,0,1,1,2-2A2,2,0,0,1,56,34Z" id="id_111"></path><path d="M27.763,51.539V59.68a27.8,27.8,0,0,0,8,.06V51.633a19.595,19.595,0,0,1-8-.094Z" id="id_112"></path><path d="M50.906,25.532l7.033-4.058a27.99,27.99,0,0,0-4-6.843L46.891,18.7A19.97,19.97,0,0,1,50.906,25.532Z" id="id_113"></path><path d="M11.215,50.74a28.016,28.016,0,0,0,14.548,8.551v-8.3a20,20,0,0,1-7.382-4.386ZM20,51a2,2,0,1,1-2,2A2,2,0,0,1,20,51Z" id="id_114"></path></svg>