<svg width="15" height="14" viewBox="0 0 15 14" fill="none" xmlns="http://www.w3.org/2000/svg">
<path d="M12.6667 6.97333C12.6667 9.91885 10.2789 12.3067 7.33333 12.3067C4.38781 12.3067 2 9.91885 2 6.97333C2 4.02781 4.38781 1.64 7.33333 1.64C10.2789 1.64 12.6667 4.02781 12.6667 6.97333Z" fill="white"/>
<path d="M14.6667 6.97333L13.04 5.12L13.2667 2.66667L10.86 2.12L9.6 0L7.33333 0.973333L5.06667 0L3.80667 2.12L1.4 2.66L1.62667 5.11333L0 6.97333L1.62667 8.82667L1.4 11.2867L3.80667 11.8333L5.06667 13.9533L7.33333 12.9733L9.6 13.9467L10.86 11.8267L13.2667 11.28L13.04 8.82667L14.6667 6.97333ZM6 10.3067L3.33333 7.64L4.27333 6.7L6 8.42L10.3933 4.02667L11.3333 4.97333L6 10.3067Z" fill="#00B2EC"/>
</svg>
