<svg width="12" height="14" viewBox="0 0 12 14" fill="none" xmlns="http://www.w3.org/2000/svg">
<path d="M9.75 0.75C9.25272 0.75 8.77581 0.947544 8.42417 1.29917C8.07254 1.65081 7.875 2.12772 7.875 2.625C7.87538 2.74259 7.88683 2.85989 7.90918 2.97534L3.46216 5.56934C3.12344 5.2824 2.69391 5.12495 2.25 5.125C1.75272 5.125 1.27581 5.32254 0.924175 5.67417C0.572544 6.02581 0.375 6.50272 0.375 7C0.375 7.49728 0.572544 7.97419 0.924175 8.32583C1.27581 8.67746 1.75272 8.875 2.25 8.875C2.69323 8.87413 3.12181 8.71628 3.45972 8.42944L7.90918 11.0247C7.88683 11.1401 7.87538 11.2574 7.875 11.375C7.875 11.8723 8.07254 12.3492 8.42417 12.7008C8.77581 13.0525 9.25272 13.25 9.75 13.25C10.2473 13.25 10.7242 13.0525 11.0758 12.7008C11.4275 12.3492 11.625 11.8723 11.625 11.375C11.625 10.8777 11.4275 10.4008 11.0758 10.0492C10.7242 9.69754 10.2473 9.5 9.75 9.5C9.30635 9.50058 8.87729 9.65845 8.53906 9.94556L4.09082 7.35034C4.11317 7.23489 4.12462 7.11759 4.125 7C4.12462 6.88241 4.11317 6.76511 4.09082 6.64966L8.53784 4.05566C8.87656 4.3426 9.30609 4.50005 9.75 4.5C10.2473 4.5 10.7242 4.30246 11.0758 3.95083C11.4275 3.59919 11.625 3.12228 11.625 2.625C11.625 2.12772 11.4275 1.65081 11.0758 1.29917C10.7242 0.947544 10.2473 0.75 9.75 0.75Z" fill="white"/>
</svg>
