<svg xmlns="http://www.w3.org/2000/svg" viewBox="0 0 64 64" width="256" height="256"><path d="M27 35h-2v10h-2v-7h-2v7h-2v-9h-2v9h-2v-6h-2v6h-2v2h18v-2h-2zM50.555 46.832l3-2-1.109-1.664-2.058 1.372-2.493-4.987a1 1 0 0 0-.867-.552.97.97 0 0 0-.896.503l-3.438 6.017L39.6 43.2a1 1 0 0 0-1.4.2l-3 4 1.6 1.2 2.4-3.2 3.2 2.4a1.002 1.002 0 0 0 1.469-.303l3.073-5.377 2.164 4.329a1 1 0 0 0 1.449.383z" fill="#ffffff" class="color000 svgShape"></path><path d="M55.486 50.072A12.911 12.911 0 0 0 57 44c0-4.59-2.398-8.623-6-10.937V29c2.757 0 5-2.243 5-5V13a1 1 0 0 0-1-1H39V8c0-3.309-2.691-6-6-6h-8c-3.309 0-6 2.691-6 6v4H3a1 1 0 0 0-1 1v11c0 2.757 2.243 5 5 5v18c0 3.86 3.14 7 7 7h21.705c2.253 1.872 5.144 3 8.295 3 2.193 0 4.258-.551 6.072-1.514l5.392 5.392A3.803 3.803 0 0 0 58.171 62 3.832 3.832 0 0 0 62 58.171a3.8 3.8 0 0 0-1.122-2.707l-5.392-5.392zM21 8c0-2.206 1.794-4 4-4h8c2.206 0 4 1.794 4 4v4h-2V8c0-1.103-.897-2-2-2h-8c-1.103 0-2 .897-2 2v4h-2V8zm12 4h-8V8h8v4zM4 24V14h50v10c0 1.654-1.346 3-3 3H33v-3a1 1 0 0 0-1-1h-6a1 1 0 0 0-1 1v3H7c-1.654 0-3-1.346-3-3zm23 4v-3h4v6h-4v-3zM14 52c-2.757 0-5-2.243-5-5V29h16v3a1 1 0 0 0 1 1h6a1 1 0 0 0 1-1v-3h16v3.003A12.901 12.901 0 0 0 44 31c-7.168 0-13 5.832-13 13 0 .405.024.808.061 1.208.015.159.039.314.06.471.03.231.063.462.106.69a13.873 13.873 0 0 0 .452 1.748c.047.141.101.279.153.418.086.23.171.459.269.683.029.067.065.131.095.198.268.581.573 1.142.92 1.673l.023.038c.147.223.306.435.465.648.056.074.105.153.162.226H14zm22.668.177a10.86 10.86 0 0 1-1.439-1.566l-.126-.168c-.186-.257-.36-.521-.523-.792-.032-.053-.066-.106-.097-.16a11.049 11.049 0 0 1-.452-.871c-.022-.047-.046-.092-.067-.138-.139-.31-.261-.626-.371-.948-.013-.039-.03-.077-.043-.116a11.244 11.244 0 0 1-.273-.995c-.009-.039-.022-.077-.03-.117a10.57 10.57 0 0 1-.163-1.005c-.006-.047-.016-.093-.021-.14A10.684 10.684 0 0 1 33 44c0-6.065 4.935-11 11-11 .445 0 .888.034 1.328.088.1.012.198.031.297.045.364.055.725.126 1.082.217.075.019.15.037.225.058.881.246 1.734.599 2.535 1.059C52.768 36.369 55 39.925 55 44a10.92 10.92 0 0 1-1.645 5.758 11.098 11.098 0 0 1-3.597 3.597A10.92 10.92 0 0 1 44 55a10.942 10.942 0 0 1-7.332-2.823zM58.171 60c-.488 0-.947-.19-1.293-.536l-5.08-5.081c.021-.016.038-.036.059-.052a13.096 13.096 0 0 0 2.475-2.475c.016-.021.036-.038.052-.059l5.081 5.08A1.83 1.83 0 0 1 58.171 60z" fill="#ffffff" class="color000 svgShape"></path></svg>