<svg width="20" height="19" viewBox="0 0 20 19" fill="none" xmlns="http://www.w3.org/2000/svg">
<path d="M18.25 0.75H1.75C1.35218 0.75 0.970644 0.908035 0.68934 1.18934C0.408035 1.47064 0.25 1.85218 0.25 2.25V15C0.25 15.3978 0.408035 15.7794 0.68934 16.0607C0.970644 16.342 1.35218 16.5 1.75 16.5H3.25V18C3.25 18.1989 3.32902 18.3897 3.46967 18.5303C3.61032 18.671 3.80109 18.75 4 18.75C4.19891 18.75 4.38968 18.671 4.53033 18.5303C4.67098 18.3897 4.75 18.1989 4.75 18V16.5H15.25V18C15.25 18.1989 15.329 18.3897 15.4697 18.5303C15.6103 18.671 15.8011 18.75 16 18.75C16.1989 18.75 16.3897 18.671 16.5303 18.5303C16.671 18.3897 16.75 18.1989 16.75 18V16.5H18.25C18.6478 16.5 19.0294 16.342 19.3107 16.0607C19.592 15.7794 19.75 15.3978 19.75 15V2.25C19.75 1.85218 19.592 1.47064 19.3107 1.18934C19.0294 0.908035 18.6478 0.75 18.25 0.75ZM17.5 9.75H14.7906C14.6062 10.559 14.1303 11.2718 13.4537 11.7521C12.777 12.2324 11.9472 12.4466 11.1226 12.3538C10.2981 12.2611 9.5366 11.8678 8.98364 11.2491C8.43069 10.6304 8.12501 9.82976 8.12501 9C8.12501 8.17024 8.43069 7.36955 8.98364 6.75089C9.5366 6.13222 10.2981 5.73894 11.1226 5.64616C11.9472 5.55339 12.777 5.76762 13.4537 6.24793C14.1303 6.72825 14.6062 7.44098 14.7906 8.25H17.5C17.6989 8.25 17.8897 8.32902 18.0303 8.46967C18.171 8.61032 18.25 8.80109 18.25 9C18.25 9.19891 18.171 9.38968 18.0303 9.53033C17.8897 9.67098 17.6989 9.75 17.5 9.75ZM13.375 9C13.375 9.37084 13.265 9.73335 13.059 10.0417C12.853 10.35 12.5601 10.5904 12.2175 10.7323C11.8749 10.8742 11.4979 10.9113 11.1342 10.839C10.7705 10.7666 10.4364 10.588 10.1742 10.3258C9.91195 10.0636 9.73337 9.72951 9.66103 9.3658C9.58868 9.00208 9.62581 8.62508 9.76773 8.28247C9.90964 7.93986 10.15 7.64702 10.4583 7.44099C10.7666 7.23497 11.1292 7.125 11.5 7.125C11.9965 7.12746 12.472 7.3258 12.8231 7.6769C13.1742 8.028 13.3725 8.50348 13.375 9Z" fill="#ffffff"/>
</svg>
