<svg width="240px" height="240px" viewBox="-6.72 -6.72 37.44 37.44" fill="none" xmlns="http://www.w3.org/2000/svg"><g id="SVGRepo_bgCarrier" stroke-width="0" transform="translate(0,0), scale(1)"><rect x="-6.72" y="-6.72" width="37.44" height="37.44" rx="18.72" fill="#85d0ff" strokewidth="0"></rect></g><g id="SVGRepo_tracerCarrier" stroke-linecap="round" stroke-linejoin="round" stroke="#CCCCCC" stroke-width="0.096"></g><g id="SVGRepo_iconCarrier"> <path d="M6 7L6 8M6 17L6 12" stroke="#ffffff" stroke-width="1.5" stroke-linecap="round"></path> <path d="M11 12C11 10.3431 12.3431 9 14 9C15.6569 9 17 10.3431 17 12C17 13.6569 15.6569 15 14 15C12.3431 15 11 13.6569 11 12Z" stroke="#ffffff" stroke-width="1.5"></path> <path d="M12.5 9.40135C12.9413 9.14609 13.4536 9 14 9C15.6569 9 17 10.3431 17 12C17 13.6569 15.6569 15 14 15C12.3431 15 11 13.6569 11 12C11 11.4536 11.1461 10.9413 11.4013 10.5" stroke="#ffffff" stroke-width="1.5" stroke-linecap="round"></path> <path d="M16.5 9.5L18 8" stroke="#ffffff" stroke-width="1.5" stroke-linecap="round"></path> <path d="M10 16L11.5 14.5" stroke="#ffffff" stroke-width="1.5" stroke-linecap="round"></path> <path d="M11.5 9.5L10 8" stroke="#ffffff" stroke-width="1.5" stroke-linecap="round"></path> <path d="M18 16L16.5 14.5" stroke="#ffffff" stroke-width="1.5" stroke-linecap="round"></path> <path d="M22 12C22 16.714 22 19.0711 20.5355 20.5355C19.0711 22 16.714 22 12 22C7.28595 22 4.92893 22 3.46447 20.5355C2 19.0711 2 16.714 2 12C2 7.28595 2 4.92893 3.46447 3.46447C4.92893 2 7.28595 2 12 2C16.714 2 19.0711 2 20.5355 3.46447C21.5093 4.43821 21.8356 5.80655 21.9449 8" stroke="#ffffff" stroke-width="1.5" stroke-linecap="round"></path> </g></svg>