<svg width="63" height="56" viewBox="0 0 63 56" fill="none" xmlns="http://www.w3.org/2000/svg">
<path d="M60.5775 0.775668C59.9921 0.431521 59.3375 0.195216 58.6513 0.0802524C57.965 -0.0347116 57.2604 -0.026082 56.5778 0.105648C55.8952 0.237378 55.248 0.489628 54.673 0.847986C54.0981 1.20635 53.6068 1.66379 53.2271 2.19419L23.4461 43.7727L8.92229 31.6093C8.40988 31.1802 7.80916 30.8467 7.15443 30.6278C6.4997 30.4089 5.80379 30.309 5.10643 30.3337C3.69805 30.3837 2.36926 30.9384 1.41238 31.8757C0.455506 32.8131 -0.051078 34.0563 0.00407452 35.332C0.059227 36.6076 0.671598 37.8112 1.70647 38.6779L20.7762 54.6475C20.7762 54.6475 21.3237 55.0744 21.577 55.2236C22.1625 55.568 22.8172 55.8045 23.5036 55.9196C24.1901 56.0347 24.8949 56.0261 25.5777 55.8944C26.2605 55.7627 26.9079 55.5103 27.483 55.1518C28.0581 54.7933 28.5495 54.3357 28.9292 53.8051L62.1436 7.43343C62.5236 6.90317 62.7845 6.31031 62.9114 5.68871C63.0383 5.0671 63.0288 4.42894 62.8834 3.81067C62.7379 3.19241 62.4594 2.60615 62.0638 2.08539C61.6681 1.56464 61.1631 1.11959 60.5775 0.775668Z" fill="#31373D"/>
</svg>
