<svg width="87" height="20" viewBox="0 0 87 20" fill="none" xmlns="http://www.w3.org/2000/svg">
<path d="M0.22 15H3.28L4.6 11.68H10.48L11.82 15H14.9L9.2 0.999999H5.88L0.22 15ZM5.68 9L7.54 4.34L9.42 9H5.68ZM19.5708 4.92C16.9908 4.92 15.0908 7.22 15.0908 10.12C15.0908 13 16.9908 15.3 19.5708 15.3C20.7708 15.3 21.7308 14.92 22.4708 14.14V15H25.2708V0.999999H22.4708V6.08C21.7308 5.3 20.7708 4.92 19.5708 4.92ZM20.1908 12.62C18.8308 12.62 17.8908 11.58 17.8908 10.12C17.8908 8.68 18.8308 7.6 20.1908 7.6C21.5508 7.6 22.4708 8.66 22.4708 10.12C22.4708 11.56 21.5508 12.62 20.1908 12.62ZM31.2505 4.92C28.6705 4.92 26.7705 7.22 26.7705 10.12C26.7705 13 28.6705 15.3 31.2505 15.3C32.4505 15.3 33.4105 14.92 34.1505 14.14V15H36.9505V0.999999H34.1505V6.08C33.4105 5.3 32.4505 4.92 31.2505 4.92ZM31.8705 12.62C30.5105 12.62 29.5705 11.58 29.5705 10.12C29.5705 8.68 30.5105 7.6 31.8705 7.6C33.2305 7.6 34.1505 8.66 34.1505 10.12C34.1505 11.56 33.2305 12.62 31.8705 12.62ZM42.8028 10.5C43.4228 13.48 45.6228 15.3 48.8028 15.3C52.1428 15.3 54.3228 13.4 54.3228 10.64C54.3228 8 52.4628 6.62 48.8028 6.24C46.9628 6.06 46.3428 5.6 46.3428 4.72C46.3428 3.94 47.2628 3.4 48.6228 3.4C49.8828 3.4 50.8828 4.3 51.2628 5.72L53.9028 4.62C53.6028 3.44 52.9828 2.48 52.0228 1.78C51.0828 1.06 49.9428 0.699999 48.6228 0.699999C45.6828 0.699999 43.5428 2.32 43.5428 4.66C43.5428 7.24 45.1828 8.7 48.4828 9.02C50.5828 9.24 51.5228 9.82 51.5228 10.72C51.5228 11.86 50.5028 12.62 48.8028 12.62C47.0428 12.62 45.8228 11.54 45.4028 9.54L42.8028 10.5ZM55.0061 7.62H56.5061V11.5C56.5061 13.84 58.0261 15.3 60.5861 15.3C62.7661 15.3 64.3661 13.78 64.2461 11.36L61.5861 11.08L61.6061 11.36C61.6061 12.3 61.1661 12.8 60.4461 12.8C59.7461 12.8 59.3061 12.36 59.3061 11.62V7.62H63.8261V5.22H59.3061V2.48H56.5061V5.22H55.0061V7.62ZM70.0103 4.94C67.0903 4.94 65.1103 7.2 65.1103 10.14C65.1103 13.08 67.1103 15.3 70.1103 15.3C72.3903 15.3 74.3503 13.88 74.6703 11.78L72.1703 11.3C71.9503 12.32 71.1903 12.92 70.1503 12.92C68.8703 12.92 67.9303 12.16 67.6703 10.82H74.4703V9.74C74.4703 6.92 72.7103 4.94 70.0103 4.94ZM67.7303 8.9C68.0703 7.86 68.9103 7.24 70.0103 7.24C71.1903 7.24 71.9903 8 72.0503 8.9H67.7303ZM76.1748 19.5H78.9748V14.16C79.7148 14.94 80.6748 15.32 81.8748 15.32C84.4548 15.32 86.3548 13 86.3548 10.12C86.3548 7.22 84.4548 4.92 81.8748 4.92C80.6748 4.92 79.7148 5.3 78.9748 6.08V5.22H76.1748V19.5ZM81.2548 12.62C79.8948 12.62 78.9748 11.56 78.9748 10.12C78.9748 8.66 79.8948 7.62 81.2548 7.62C82.6148 7.62 83.5548 8.66 83.5548 10.12C83.5548 11.56 82.6148 12.62 81.2548 12.62Z" fill="url(#paint0_linear_1863_2000)"/>
<path d="M0.22 15L-0.7071 14.6252L-1.26292 16H0.22V15ZM3.28 15V16H3.95855L4.20925 15.3695L3.28 15ZM4.6 11.68V10.68H3.92145L3.67075 11.3105L4.6 11.68ZM10.48 11.68L11.4073 11.3057L11.1548 10.68H10.48V11.68ZM11.82 15L10.8927 15.3743L11.1452 16H11.82V15ZM14.9 15V16H16.3869L15.8262 14.6229L14.9 15ZM9.2 0.999999L10.1262 0.622912L9.87256 -9.53674e-07H9.2V0.999999ZM5.88 0.999999V-9.53674e-07H5.20565L4.9529 0.625186L5.88 0.999999ZM5.68 9L4.75125 8.6293L4.20414 10H5.68V9ZM7.54 4.34L8.46737 3.96586L7.53504 1.65486L6.61125 3.9693L7.54 4.34ZM9.42 9V10H10.9017L10.3474 8.62587L9.42 9ZM0.22 16H3.28V14H0.22V16ZM4.20925 15.3695L5.52925 12.0495L3.67075 11.3105L2.35075 14.6305L4.20925 15.3695ZM4.6 12.68H10.48V10.68H4.6V12.68ZM9.55268 12.0543L10.8927 15.3743L12.7473 14.6257L11.4073 11.3057L9.55268 12.0543ZM11.82 16H14.9V14H11.82V16ZM15.8262 14.6229L10.1262 0.622912L8.27382 1.37709L13.9738 15.3771L15.8262 14.6229ZM9.2 -9.53674e-07H5.88V2H9.2V-9.53674e-07ZM4.9529 0.625186L-0.7071 14.6252L1.1471 15.3748L6.8071 1.37481L4.9529 0.625186ZM6.60875 9.3707L8.46875 4.7107L6.61125 3.9693L4.75125 8.6293L6.60875 9.3707ZM6.61263 4.71413L8.49263 9.37413L10.3474 8.62587L8.46737 3.96586L6.61263 4.71413ZM9.42 8H5.68V10H9.42V8ZM22.4708 14.14H23.4708V11.633L21.7453 13.4517L22.4708 14.14ZM22.4708 15H21.4708V16H22.4708V15ZM25.2708 15V16H26.2708V15H25.2708ZM25.2708 0.999999H26.2708V-9.53674e-07H25.2708V0.999999ZM22.4708 0.999999V-9.53674e-07H21.4708V0.999999H22.4708ZM22.4708 6.08L21.7453 6.76826L23.4708 8.58699V6.08H22.4708ZM19.5708 3.92C16.2929 3.92 14.0908 6.82548 14.0908 10.12H16.0908C16.0908 7.61451 17.6886 5.92 19.5708 5.92V3.92ZM14.0908 10.12C14.0908 13.3972 16.2952 16.3 19.5708 16.3V14.3C17.6863 14.3 16.0908 12.6028 16.0908 10.12H14.0908ZM19.5708 16.3C21.0059 16.3 22.242 15.8341 23.1962 14.8283L21.7453 13.4517C21.2195 14.0059 20.5357 14.3 19.5708 14.3V16.3ZM21.4708 14.14V15H23.4708V14.14H21.4708ZM22.4708 16H25.2708V14H22.4708V16ZM26.2708 15V0.999999H24.2708V15H26.2708ZM25.2708 -9.53674e-07H22.4708V2H25.2708V-9.53674e-07ZM21.4708 0.999999V6.08H23.4708V0.999999H21.4708ZM23.1962 5.39174C22.242 4.38593 21.0059 3.92 19.5708 3.92V5.92C20.5357 5.92 21.2195 6.21407 21.7453 6.76826L23.1962 5.39174ZM20.1908 11.62C19.7794 11.62 19.4761 11.4692 19.2685 11.2423C19.0546 11.0087 18.8908 10.6354 18.8908 10.12H16.8908C16.8908 11.0646 17.1969 11.9413 17.7931 12.5927C18.3955 13.2508 19.2422 13.62 20.1908 13.62V11.62ZM18.8908 10.12C18.8908 9.13057 19.4796 8.6 20.1908 8.6V6.6C18.182 6.6 16.8908 8.22943 16.8908 10.12H18.8908ZM20.1908 8.6C20.5948 8.6 20.8907 8.75008 21.0952 8.97893C21.3079 9.21687 21.4708 9.59823 21.4708 10.12H23.4708C23.4708 9.18177 23.1737 8.30313 22.5863 7.64607C21.9909 6.97992 21.1467 6.6 20.1908 6.6V8.6ZM21.4708 10.12C21.4708 10.6285 21.3099 11.0047 21.0971 11.2415C20.892 11.4696 20.5951 11.62 20.1908 11.62V13.62C21.1464 13.62 21.9895 13.2404 22.5845 12.5785C23.1717 11.9253 23.4708 11.0515 23.4708 10.12H21.4708ZM34.1505 14.14H35.1505V11.633L33.425 13.4517L34.1505 14.14ZM34.1505 15H33.1505V16H34.1505V15ZM36.9505 15V16H37.9505V15H36.9505ZM36.9505 0.999999H37.9505V-9.53674e-07H36.9505V0.999999ZM34.1505 0.999999V-9.53674e-07H33.1505V0.999999H34.1505ZM34.1505 6.08L33.425 6.76826L35.1505 8.58699V6.08H34.1505ZM31.2505 3.92C27.9726 3.92 25.7705 6.82548 25.7705 10.12H27.7705C27.7705 7.61451 29.3683 5.92 31.2505 5.92V3.92ZM25.7705 10.12C25.7705 13.3972 27.9749 16.3 31.2505 16.3V14.3C29.366 14.3 27.7705 12.6028 27.7705 10.12H25.7705ZM31.2505 16.3C32.6856 16.3 33.9217 15.8341 34.8759 14.8283L33.425 13.4517C32.8992 14.0059 32.2154 14.3 31.2505 14.3V16.3ZM33.1505 14.14V15H35.1505V14.14H33.1505ZM34.1505 16H36.9505V14H34.1505V16ZM37.9505 15V0.999999H35.9505V15H37.9505ZM36.9505 -9.53674e-07H34.1505V2H36.9505V-9.53674e-07ZM33.1505 0.999999V6.08H35.1505V0.999999H33.1505ZM34.8759 5.39174C33.9217 4.38593 32.6856 3.92 31.2505 3.92V5.92C32.2154 5.92 32.8992 6.21407 33.425 6.76826L34.8759 5.39174ZM31.8705 11.62C31.459 11.62 31.1558 11.4692 30.9481 11.2423C30.7343 11.0087 30.5705 10.6354 30.5705 10.12H28.5705C28.5705 11.0646 28.8766 11.9413 29.4728 12.5927C30.0752 13.2508 30.9219 13.62 31.8705 13.62V11.62ZM30.5705 10.12C30.5705 9.13057 31.1593 8.6 31.8705 8.6V6.6C29.8617 6.6 28.5705 8.22943 28.5705 10.12H30.5705ZM31.8705 8.6C32.2745 8.6 32.5703 8.75008 32.7749 8.97893C32.9876 9.21687 33.1505 9.59823 33.1505 10.12H35.1505C35.1505 9.18177 34.8533 8.30313 34.266 7.64607C33.6706 6.97992 32.8264 6.6 31.8705 6.6V8.6ZM33.1505 10.12C33.1505 10.6285 32.9896 11.0047 32.7768 11.2415C32.5717 11.4696 32.2748 11.62 31.8705 11.62V13.62C32.8261 13.62 33.6692 13.2404 34.2642 12.5785C34.8514 11.9253 35.1505 11.0515 35.1505 10.12H33.1505ZM42.8028 10.5L42.4564 9.5619L41.6483 9.86029L41.8238 10.7037L42.8028 10.5ZM48.8028 6.24L48.9061 5.24533L48.9002 5.24475L48.8028 6.24ZM51.2628 5.72L50.2968 5.97851L50.5923 7.08272L51.6474 6.64308L51.2628 5.72ZM53.9028 4.62L54.2874 5.54308L55.0848 5.21082L54.872 4.3736L53.9028 4.62ZM52.0228 1.78L51.4147 2.57388L51.4241 2.58105L51.4336 2.58801L52.0228 1.78ZM48.4828 9.02L48.587 8.02541L48.5793 8.02467L48.4828 9.02ZM45.4028 9.54L46.3815 9.33448L46.1433 8.20058L45.0564 8.6019L45.4028 9.54ZM41.8238 10.7037C42.1745 12.3894 42.987 13.8045 44.2147 14.7956C45.4421 15.7865 47.0179 16.3 48.8028 16.3V14.3C47.4077 14.3 46.2935 13.9035 45.471 13.2394C44.6486 12.5755 44.0511 11.5906 43.7818 10.2963L41.8238 10.7037ZM48.8028 16.3C50.6574 16.3 52.2837 15.7716 53.4638 14.7662C54.6573 13.7494 55.3228 12.3024 55.3228 10.64H53.3228C53.3228 11.7376 52.8983 12.6206 52.1668 13.2438C51.4219 13.8784 50.2882 14.3 48.8028 14.3V16.3ZM55.3228 10.64C55.3228 9.04973 54.7442 7.73904 53.5519 6.80522C52.4145 5.91439 50.8158 5.44362 48.9061 5.24535L48.6995 7.23465C50.4498 7.41638 51.6111 7.82561 52.3187 8.37978C52.9714 8.89096 53.3228 9.59027 53.3228 10.64H55.3228ZM48.9002 5.24475C48.0097 5.15764 47.5977 5.01324 47.4236 4.90132C47.3882 4.87857 47.3713 4.86235 47.3648 4.85544C47.3614 4.85186 47.3599 4.84975 47.3594 4.84906C47.3589 4.84839 47.3587 4.84807 47.3586 4.84772C47.3584 4.84735 47.3576 4.84579 47.3564 4.84244C47.3552 4.83902 47.3534 4.83299 47.3514 4.82366C47.3474 4.80475 47.3428 4.77172 47.3428 4.72H45.3428C45.3428 5.05759 45.4027 5.41605 45.5783 5.75915C45.7565 6.10723 46.0227 6.37836 46.3421 6.58368C46.938 6.96676 47.7559 7.14236 48.7055 7.23525L48.9002 5.24475ZM47.3428 4.72C47.3428 4.78532 47.2868 4.74166 47.4753 4.63206C47.6779 4.51435 48.059 4.4 48.6228 4.4V2.4C47.8267 2.4 47.0678 2.55565 46.4703 2.90294C45.8588 3.25834 45.3428 3.87468 45.3428 4.72H47.3428ZM48.6228 4.4C49.3185 4.4 50.0023 4.87782 50.2968 5.97851L52.2288 5.46149C51.7634 3.72218 50.4471 2.4 48.6228 2.4V4.4ZM51.6474 6.64308L54.2874 5.54308L53.5182 3.69692L50.8782 4.79692L51.6474 6.64308ZM54.872 4.3736C54.5192 2.98597 53.7748 1.81985 52.612 0.971992L51.4336 2.58801C52.1909 3.14015 52.6864 3.89403 52.9336 4.8664L54.872 4.3736ZM52.6309 0.986122C51.495 0.116089 50.1342 -0.300001 48.6228 -0.300001V1.7C49.7515 1.7 50.6706 2.00391 51.4147 2.57388L52.6309 0.986122ZM48.6228 -0.300001C45.3855 -0.300001 42.5428 1.54337 42.5428 4.66H44.5428C44.5428 3.09663 45.9802 1.7 48.6228 1.7V-0.300001ZM42.5428 4.66C42.5428 6.18027 43.0369 7.48491 44.1128 8.43654C45.1548 9.35819 46.6264 9.84467 48.3863 10.0153L48.5793 8.02467C47.0392 7.87532 46.0408 7.47181 45.4378 6.93846C44.8687 6.43509 44.5428 5.71973 44.5428 4.66H42.5428ZM48.3786 10.0146C49.3809 10.1196 49.9762 10.3011 50.2932 10.4827C50.5571 10.6338 50.5228 10.7095 50.5228 10.72H52.5228C52.5228 9.83048 52.0186 9.16616 51.2874 8.74729C50.6095 8.35893 49.6848 8.14045 48.587 8.02544L48.3786 10.0146ZM50.5228 10.72C50.5228 10.9526 50.4359 11.1296 50.2207 11.2826C49.9741 11.458 49.519 11.62 48.8028 11.62V13.62C49.7867 13.62 50.6915 13.402 51.3799 12.9124C52.0998 12.4004 52.5228 11.6274 52.5228 10.72H50.5228ZM48.8028 11.62C48.1387 11.62 47.6413 11.4217 47.2695 11.0869C46.8874 10.7429 46.5597 10.1832 46.3815 9.33448L44.4242 9.74552C44.6659 10.8968 45.1582 11.8771 45.9312 12.5731C46.7143 13.2783 47.707 13.62 48.8028 13.62V11.62ZM45.0564 8.6019L42.4564 9.5619L43.1492 11.4381L45.7492 10.4781L45.0564 8.6019ZM55.0061 7.62H54.0061V8.62H55.0061V7.62ZM56.5061 7.62H57.5061V6.62H56.5061V7.62ZM64.2461 11.36L65.2449 11.3105L65.2025 10.4551L64.3508 10.3655L64.2461 11.36ZM61.5861 11.08L61.6908 10.0855L60.5036 9.96053L60.5886 11.1512L61.5861 11.08ZM61.6061 11.36H62.6061V11.3243L62.6036 11.2888L61.6061 11.36ZM59.3061 7.62V6.62H58.3061V7.62H59.3061ZM63.8261 7.62V8.62H64.8261V7.62H63.8261ZM63.8261 5.22H64.8261V4.22H63.8261V5.22ZM59.3061 5.22H58.3061V6.22H59.3061V5.22ZM59.3061 2.48H60.3061V1.48H59.3061V2.48ZM56.5061 2.48V1.48H55.5061V2.48H56.5061ZM56.5061 5.22V6.22H57.5061V5.22H56.5061ZM55.0061 5.22V4.22H54.0061V5.22H55.0061ZM55.0061 8.62H56.5061V6.62H55.0061V8.62ZM55.5061 7.62V11.5H57.5061V7.62H55.5061ZM55.5061 11.5C55.5061 12.8931 55.9646 14.1264 56.9015 15.0064C57.831 15.8794 59.1194 16.3 60.5861 16.3V14.3C59.4928 14.3 58.7412 13.9906 58.2707 13.5486C57.8075 13.1136 57.5061 12.4469 57.5061 11.5H55.5061ZM60.5861 16.3C61.9113 16.3 63.1289 15.8343 63.9988 14.9313C64.8724 14.0244 65.3167 12.7584 65.2449 11.3105L63.2473 11.4095C63.2955 12.3816 62.9998 13.0856 62.5584 13.5437C62.1133 14.0057 61.4409 14.3 60.5861 14.3V16.3ZM64.3508 10.3655L61.6908 10.0855L61.4814 12.0745L64.1414 12.3545L64.3508 10.3655ZM60.5886 11.1512L60.6086 11.4312L62.6036 11.2888L62.5836 11.0088L60.5886 11.1512ZM60.6061 11.36C60.6061 11.6892 60.5276 11.7926 60.5246 11.7962C60.5236 11.7974 60.525 11.7957 60.5285 11.793C60.5321 11.7903 60.5347 11.7891 60.5345 11.7892C60.5341 11.7894 60.5281 11.7919 60.5145 11.7945C60.5006 11.7972 60.4783 11.8 60.4461 11.8V13.8C61.0547 13.8 61.6479 13.5776 62.0676 13.0688C62.4646 12.5874 62.6061 11.9708 62.6061 11.36H60.6061ZM60.4461 11.8C60.3754 11.8 60.3385 11.7889 60.3263 11.7843C60.3161 11.7805 60.3211 11.7807 60.3295 11.7893C60.3377 11.7977 60.3342 11.7987 60.3269 11.7786C60.319 11.7565 60.3061 11.7067 60.3061 11.62H58.3061C58.3061 12.1879 58.4783 12.7557 58.8977 13.1857C59.3196 13.6183 59.8832 13.8 60.4461 13.8V11.8ZM60.3061 11.62V7.62H58.3061V11.62H60.3061ZM59.3061 8.62H63.8261V6.62H59.3061V8.62ZM64.8261 7.62V5.22H62.8261V7.62H64.8261ZM63.8261 4.22H59.3061V6.22H63.8261V4.22ZM60.3061 5.22V2.48H58.3061V5.22H60.3061ZM59.3061 1.48H56.5061V3.48H59.3061V1.48ZM55.5061 2.48V5.22H57.5061V2.48H55.5061ZM56.5061 4.22H55.0061V6.22H56.5061V4.22ZM54.0061 5.22V7.62H56.0061V5.22H54.0061ZM74.6703 11.78L75.6589 11.9306L75.8039 10.9794L74.8589 10.7979L74.6703 11.78ZM72.1703 11.3L72.3589 10.3179L71.3989 10.1336L71.1928 11.0892L72.1703 11.3ZM67.6703 10.82V9.82H66.4576L66.6886 11.0105L67.6703 10.82ZM74.4703 10.82V11.82H75.4703V10.82H74.4703ZM67.7303 8.9L66.7798 8.58926L66.3513 9.9H67.7303V8.9ZM72.0503 8.9V9.9H73.1192L73.0481 8.83348L72.0503 8.9ZM70.0103 3.94C66.4634 3.94 64.1103 6.72546 64.1103 10.14H66.1103C66.1103 7.67454 67.7173 5.94 70.0103 5.94V3.94ZM64.1103 10.14C64.1103 11.8383 64.6903 13.3832 65.7598 14.5107C66.8343 15.6436 68.3519 16.3 70.1103 16.3V14.3C68.8687 14.3 67.8863 13.8464 67.2109 13.1343C66.5303 12.4168 66.1103 11.3817 66.1103 10.14H64.1103ZM70.1103 16.3C72.7727 16.3 75.2488 14.6219 75.6589 11.9306L73.6817 11.6294C73.4518 13.1381 72.0079 14.3 70.1103 14.3V16.3ZM74.8589 10.7979L72.3589 10.3179L71.9818 12.2821L74.4818 12.7621L74.8589 10.7979ZM71.1928 11.0892C71.1254 11.4014 70.9904 11.594 70.8438 11.7111C70.6961 11.829 70.4743 11.92 70.1503 11.92V13.92C70.8663 13.92 71.5445 13.711 72.0918 13.2739C72.6402 12.836 72.9952 12.2186 73.1478 11.5108L71.1928 11.0892ZM70.1503 11.92C69.7132 11.92 69.394 11.7933 69.1693 11.6054C68.9439 11.4169 68.7451 11.1094 68.652 10.6295L66.6886 11.0105C66.8555 11.8706 67.2567 12.6131 67.8863 13.1396C68.5166 13.6667 69.3074 13.92 70.1503 13.92V11.92ZM67.6703 11.82H74.4703V9.82H67.6703V11.82ZM75.4703 10.82V9.74H73.4703V10.82H75.4703ZM75.4703 9.74C75.4703 8.12312 74.9637 6.66814 73.9897 5.60648C73.0081 4.53654 71.618 3.94 70.0103 3.94V5.94C71.1026 5.94 71.9425 6.33346 72.5159 6.95852C73.097 7.59186 73.4703 8.53688 73.4703 9.74H75.4703ZM68.6808 9.21074C68.8883 8.57613 69.3489 8.24 70.0103 8.24V6.24C68.4717 6.24 67.2523 7.14387 66.7798 8.58926L68.6808 9.21074ZM70.0103 8.24C70.7506 8.24 71.033 8.67421 71.0525 8.96652L73.0481 8.83348C72.9476 7.32579 71.63 6.24 70.0103 6.24V8.24ZM72.0503 7.9H67.7303V9.9H72.0503V7.9ZM76.1748 19.5H75.1748V20.5H76.1748V19.5ZM78.9748 19.5V20.5H79.9748V19.5H78.9748ZM78.9748 14.16L79.7003 13.4717L77.9748 11.653V14.16H78.9748ZM78.9748 6.08H77.9748V8.58699L79.7003 6.76826L78.9748 6.08ZM78.9748 5.22H79.9748V4.22H78.9748V5.22ZM76.1748 5.22V4.22H75.1748V5.22H76.1748ZM76.1748 20.5H78.9748V18.5H76.1748V20.5ZM79.9748 19.5V14.16H77.9748V19.5H79.9748ZM78.2494 14.8483C79.2036 15.8541 80.4397 16.32 81.8748 16.32V14.32C80.9099 14.32 80.2261 14.0259 79.7003 13.4717L78.2494 14.8483ZM81.8748 16.32C85.1549 16.32 87.3548 13.3918 87.3548 10.12H85.3548C85.3548 12.6082 83.7547 14.32 81.8748 14.32V16.32ZM87.3548 10.12C87.3548 6.82548 85.1527 3.92 81.8748 3.92V5.92C83.757 5.92 85.3548 7.61451 85.3548 10.12H87.3548ZM81.8748 3.92C80.4397 3.92 79.2036 4.38593 78.2494 5.39174L79.7003 6.76826C80.2261 6.21407 80.9099 5.92 81.8748 5.92V3.92ZM79.9748 6.08V5.22H77.9748V6.08H79.9748ZM78.9748 4.22H76.1748V6.22H78.9748V4.22ZM75.1748 5.22V19.5H77.1748V5.22H75.1748ZM81.2548 11.62C80.8505 11.62 80.5536 11.4696 80.3486 11.2415C80.1357 11.0047 79.9748 10.6285 79.9748 10.12H77.9748C77.9748 11.0515 78.2739 11.9253 78.8611 12.5785C79.4561 13.2404 80.2992 13.62 81.2548 13.62V11.62ZM79.9748 10.12C79.9748 9.59883 80.1372 9.22477 80.3467 8.99308C80.5486 8.76975 80.8446 8.62 81.2548 8.62V6.62C80.3051 6.62 79.4611 6.99025 78.863 7.65192C78.2724 8.30523 77.9748 9.18117 77.9748 10.12H79.9748ZM81.2548 8.62C81.6663 8.62 81.9696 8.77082 82.1772 8.99766C82.391 9.23128 82.5548 9.60458 82.5548 10.12H84.5548C84.5548 9.17542 84.2487 8.29872 83.6525 7.64734C83.0501 6.98918 82.2034 6.62 81.2548 6.62V8.62ZM82.5548 10.12C82.5548 11.0984 81.976 11.62 81.2548 11.62V13.62C83.2537 13.62 84.5548 12.0216 84.5548 10.12H82.5548Z" fill="black"/>
<defs>
<linearGradient id="paint0_linear_1863_2000" x1="2.02563e-07" y1="8.99998" x2="87" y2="8.99998" gradientUnits="userSpaceOnUse">
<stop stop-color="#68DAFF"/>
<stop offset="1" stop-color="#FFF576"/>
</linearGradient>
</defs>
</svg>
