<svg width="16" height="16" viewBox="0 0 16 16" fill="none" xmlns="http://www.w3.org/2000/svg">
<circle cx="8.00033" cy="7.99984" r="5.33333" fill="white"/>
<path d="M15.3337 8.00019L13.707 6.14686L13.9337 3.69352L11.527 3.14686L10.267 1.02686L8.00033 2.00019L5.73366 1.02686L4.47366 3.14686L2.06699 3.68686L2.29366 6.14019L0.666992 8.00019L2.29366 9.85352L2.06699 12.3135L4.47366 12.8602L5.73366 14.9802L8.00033 14.0002L10.267 14.9735L11.527 12.8535L13.9337 12.3069L13.707 9.85352L15.3337 8.00019ZM6.66699 11.3335L4.00033 8.66686L4.94033 7.72686L6.66699 9.44686L11.0603 5.05352L12.0003 6.00019L6.66699 11.3335Z" fill="#00B2EC"/>
</svg>
