<svg width="16" height="16" viewBox="0 0 16 16" fill="none" xmlns="http://www.w3.org/2000/svg">
<circle cx="7.99984" cy="7.99984" r="5.33333" fill="white"/>
<path d="M15.3332 8.00019L13.7065 6.14686L13.9332 3.69352L11.5265 3.14686L10.2665 1.02686L7.99984 2.00019L5.73317 1.02686L4.47317 3.14686L2.0665 3.68686L2.29317 6.14019L0.666504 8.00019L2.29317 9.85352L2.0665 12.3135L4.47317 12.8602L5.73317 14.9802L7.99984 14.0002L10.2665 14.9735L11.5265 12.8535L13.9332 12.3069L13.7065 9.85352L15.3332 8.00019ZM6.6665 11.3335L3.99984 8.66686L4.93984 7.72686L6.6665 9.44686L11.0598 5.05352L11.9998 6.00019L6.6665 11.3335Z" fill="#00B2EC"/>
</svg>
