<svg width="16" height="16" viewBox="0 0 16 16" fill="none" xmlns="http://www.w3.org/2000/svg">
<circle cx="7.99984" cy="8.00008" r="5.33333" fill="white"/>
<path d="M15.3332 7.99994L13.7065 6.14661L13.9332 3.69328L11.5265 3.14661L10.2665 1.02661L7.99984 1.99994L5.73317 1.02661L4.47317 3.14661L2.0665 3.68661L2.29317 6.13995L0.666504 7.99994L2.29317 9.85328L2.0665 12.3133L4.47317 12.8599L5.73317 14.9799L7.99984 13.9999L10.2665 14.9733L11.5265 12.8533L13.9332 12.3066L13.7065 9.85328L15.3332 7.99994ZM6.6665 11.3333L3.99984 8.66661L4.93984 7.72661L6.6665 9.44661L11.0598 5.05328L11.9998 5.99994L6.6665 11.3333Z" fill="#00B2EC"/>
</svg>
