<svg width="20" height="20" viewBox="0 0 20 20" fill="none" xmlns="http://www.w3.org/2000/svg">
<path d="M15.8334 17.4999H6.66675V5.83325H15.8334V17.4999ZM15.8334 4.16659H6.66675C6.22472 4.16659 5.8008 4.34218 5.48824 4.65474C5.17568 4.9673 5.00008 5.39122 5.00008 5.83325V17.4999C5.00008 17.9419 5.17568 18.3659 5.48824 18.6784C5.8008 18.991 6.22472 19.1666 6.66675 19.1666H15.8334C16.2754 19.1666 16.6994 18.991 17.0119 18.6784C17.3245 18.3659 17.5001 17.9419 17.5001 17.4999V5.83325C17.5001 5.39122 17.3245 4.9673 17.0119 4.65474C16.6994 4.34218 16.2754 4.16659 15.8334 4.16659ZM13.3334 0.833252H3.33341C2.89139 0.833252 2.46746 1.00885 2.1549 1.32141C1.84234 1.63397 1.66675 2.05789 1.66675 2.49992V14.1666H3.33341V2.49992H13.3334V0.833252Z" fill="white"/>
</svg>
