<svg width="450" height="472" viewBox="0 0 450 472" fill="none" xmlns="http://www.w3.org/2000/svg">
<g clip-path="url(#clip0_416_41026)">
<rect width="450" height="530" fill="#202023"/>
<path d="M0 0H442C446.418 0 450 3.58172 450 8V464C450 468.418 446.418 472 442 472H0V0Z" fill="#EAF9EA" fill-opacity="0.05"/>
<circle opacity="0.1" cx="316.469" cy="331" r="240.531" fill="#F0F5EA"/>
<path d="M402.668 241.713L334.915 223.559C310.339 216.974 292.174 227.529 285.567 252.186L263.191 335.696C256.476 360.756 267.016 378.657 291.592 385.242L359.345 403.397C384.317 410.088 401.991 399.747 408.706 374.686L431.082 291.177C437.689 266.52 427.64 248.404 402.668 241.713Z" fill="url(#paint0_linear_416_41026)"/>
<g opacity="0.5" filter="url(#filter0_f_416_41026)">
<path d="M384.965 264.581L338.804 252.213C322.06 247.726 309.685 254.918 305.183 271.717L289.938 328.613C285.363 345.687 292.544 357.883 309.288 362.369L355.449 374.738C372.462 379.297 384.504 372.251 389.079 355.177L404.324 298.281C408.825 281.483 401.979 269.14 384.965 264.581Z" fill="#669F2A"/>
</g>
<g filter="url(#filter1_b_416_41026)">
<mask id="path-5-outside-1_416_41026" maskUnits="userSpaceOnUse" x="189.393" y="255.946" width="196" height="196" fill="black">
<rect fill="white" x="189.393" y="255.946" width="196" height="196"/>
<path d="M329.479 257.946H245.992C213.348 257.946 191.393 280.864 191.393 314.953V393.626C191.393 427.618 213.348 450.536 245.992 450.536H329.479C362.123 450.536 383.982 427.618 383.982 393.626V314.953C383.982 280.864 362.123 257.946 329.479 257.946Z"/>
</mask>
<path d="M329.479 257.946H245.992C213.348 257.946 191.393 280.864 191.393 314.953V393.626C191.393 427.618 213.348 450.536 245.992 450.536H329.479C362.123 450.536 383.982 427.618 383.982 393.626V314.953C383.982 280.864 362.123 257.946 329.479 257.946Z" fill="#72DC60" fill-opacity="0.35"/>
<path d="M329.479 259.345C330.251 259.345 330.878 258.719 330.878 257.946C330.878 257.174 330.251 256.548 329.479 256.548V259.345ZM329.479 256.548C328.707 256.548 328.081 257.174 328.081 257.946C328.081 258.719 328.707 259.345 329.479 259.345V256.548ZM329.479 256.548H245.992V259.345H329.479V256.548ZM245.992 256.548C229.33 256.548 215.301 262.404 205.441 272.699C195.585 282.989 189.994 297.605 189.994 314.953H192.791C192.791 298.212 198.178 284.325 207.461 274.634C216.738 264.947 230.009 259.345 245.992 259.345V256.548ZM189.994 314.953V393.626H192.791V314.953H189.994ZM189.994 393.626C189.994 410.926 195.586 425.518 205.441 435.796C215.302 446.078 229.33 451.934 245.992 451.934V449.137C230.009 449.137 216.738 443.535 207.46 433.86C198.177 424.18 192.791 410.317 192.791 393.626H189.994ZM245.992 451.934H329.479V449.137H245.992V451.934ZM329.479 451.934C346.141 451.934 360.146 446.077 369.983 435.794C379.814 425.517 385.38 410.924 385.38 393.626H382.583C382.583 410.319 377.221 424.182 367.961 433.861C358.708 443.535 345.461 449.137 329.479 449.137V451.934ZM385.38 393.626V314.953H382.583V393.626H385.38ZM385.38 314.953C385.38 297.607 379.815 282.99 369.983 272.7C360.146 262.405 346.141 256.548 329.479 256.548V259.345C345.461 259.345 358.707 264.947 367.961 274.632C377.22 284.323 382.583 298.21 382.583 314.953H385.38Z" fill="url(#paint1_linear_416_41026)" mask="url(#path-5-outside-1_416_41026)"/>
</g>
<g filter="url(#filter2_bd_416_41026)">
<mask id="path-7-inside-2_416_41026" fill="white">
<path d="M276.257 385.517C274.1 385.517 271.943 384.698 270.297 383.052L247.446 360.201C244.153 356.908 244.153 351.573 247.446 348.289C250.739 344.996 256.064 344.986 259.358 348.28L276.257 365.179L316.008 325.429C319.301 322.136 324.626 322.136 327.92 325.429C331.213 328.722 331.213 334.057 327.92 337.35L282.218 383.052C280.571 384.698 278.414 385.517 276.257 385.517Z"/>
</mask>
<path d="M276.257 385.517C274.1 385.517 271.943 384.698 270.297 383.052L247.446 360.201C244.153 356.908 244.153 351.573 247.446 348.289C250.739 344.996 256.064 344.986 259.358 348.28L276.257 365.179L316.008 325.429C319.301 322.136 324.626 322.136 327.92 325.429C331.213 328.722 331.213 334.057 327.92 337.35L282.218 383.052C280.571 384.698 278.414 385.517 276.257 385.517Z" fill="url(#paint2_linear_416_41026)"/>
<path d="M247.446 348.289L247.644 348.487L247.644 348.487L247.446 348.289ZM276.257 365.179L276.06 365.377L276.257 365.575L276.455 365.377L276.257 365.179ZM327.92 337.35L327.722 337.152L327.92 337.35ZM282.218 383.052L282.416 383.249L282.218 383.052ZM276.257 385.237C274.171 385.237 272.086 384.446 270.495 382.854L270.099 383.249C271.8 384.951 274.03 385.797 276.257 385.797V385.237ZM270.495 382.854L247.644 360.003L247.248 360.399L270.099 383.249L270.495 382.854ZM247.644 360.003C244.46 356.819 244.46 351.662 247.644 348.487L247.249 348.091C243.846 351.484 243.846 356.996 247.248 360.399L247.644 360.003ZM247.644 348.487C250.828 345.303 255.976 345.294 259.16 348.477L259.555 348.082C256.153 344.679 250.65 344.689 247.248 348.092L247.644 348.487ZM259.16 348.477L276.06 365.377L276.455 364.982L259.555 348.082L259.16 348.477ZM276.455 365.377L316.206 325.627L315.81 325.231L276.06 364.982L276.455 365.377ZM316.206 325.627C319.39 322.443 324.538 322.443 327.722 325.627L328.117 325.231C324.715 321.829 319.213 321.829 315.81 325.231L316.206 325.627ZM327.722 325.627C330.906 328.811 330.906 333.968 327.722 337.152L328.117 337.548C331.52 334.145 331.52 328.634 328.117 325.231L327.722 325.627ZM327.722 337.152L282.02 382.854L282.416 383.249L328.117 337.548L327.722 337.152ZM282.02 382.854C280.428 384.446 278.344 385.237 276.257 385.237V385.797C278.485 385.797 280.714 384.951 282.416 383.249L282.02 382.854Z" fill="url(#paint3_linear_416_41026)" fill-opacity="0.5" mask="url(#path-7-inside-2_416_41026)"/>
</g>
</g>
<defs>
<filter id="filter0_f_416_41026" x="269.008" y="231.327" width="156.242" height="164.344" filterUnits="userSpaceOnUse" color-interpolation-filters="sRGB">
<feFlood flood-opacity="0" result="BackgroundImageFix"/>
<feBlend mode="normal" in="SourceGraphic" in2="BackgroundImageFix" result="shape"/>
<feGaussianBlur stdDeviation="9.78906" result="effect1_foregroundBlur_416_41026"/>
</filter>
<filter id="filter1_b_416_41026" x="156.432" y="222.985" width="262.511" height="262.511" filterUnits="userSpaceOnUse" color-interpolation-filters="sRGB">
<feFlood flood-opacity="0" result="BackgroundImageFix"/>
<feGaussianBlur in="BackgroundImage" stdDeviation="16.7812"/>
<feComposite in2="SourceAlpha" operator="in" result="effect1_backgroundBlur_416_41026"/>
<feBlend mode="normal" in="SourceGraphic" in2="effect1_backgroundBlur_416_41026" result="shape"/>
</filter>
<filter id="filter2_bd_416_41026" x="224" y="301.982" width="127.367" height="104.511" filterUnits="userSpaceOnUse" color-interpolation-filters="sRGB">
<feFlood flood-opacity="0" result="BackgroundImageFix"/>
<feGaussianBlur in="BackgroundImage" stdDeviation="10.4883"/>
<feComposite in2="SourceAlpha" operator="in" result="effect1_backgroundBlur_416_41026"/>
<feColorMatrix in="SourceAlpha" type="matrix" values="0 0 0 0 0 0 0 0 0 0 0 0 0 0 0 0 0 0 127 0" result="hardAlpha"/>
<feOffset dx="6.99219" dy="6.99219"/>
<feGaussianBlur stdDeviation="6.99219"/>
<feColorMatrix type="matrix" values="0 0 0 0 0.454902 0 0 0 0 0.870588 0 0 0 0 0.376471 0 0 0 0.5 0"/>
<feBlend mode="normal" in2="effect1_backgroundBlur_416_41026" result="effect2_dropShadow_416_41026"/>
<feBlend mode="normal" in="SourceGraphic" in2="effect2_dropShadow_416_41026" result="shape"/>
</filter>
<linearGradient id="paint0_linear_416_41026" x1="441.545" y1="252.13" x2="293.788" y2="342.562" gradientUnits="userSpaceOnUse">
<stop stop-color="#9BF763"/>
<stop offset="1" stop-color="#26AB5B"/>
</linearGradient>
<linearGradient id="paint1_linear_416_41026" x1="222.05" y1="280.383" x2="344.901" y2="432.538" gradientUnits="userSpaceOnUse">
<stop stop-color="white" stop-opacity="0.25"/>
<stop offset="1" stop-color="white" stop-opacity="0"/>
</linearGradient>
<linearGradient id="paint2_linear_416_41026" x1="324.334" y1="334.256" x2="229.279" y2="338.487" gradientUnits="userSpaceOnUse">
<stop stop-color="white"/>
<stop offset="1" stop-color="white" stop-opacity="0.2"/>
</linearGradient>
<linearGradient id="paint3_linear_416_41026" x1="254.177" y1="343.944" x2="326.703" y2="344.491" gradientUnits="userSpaceOnUse">
<stop stop-color="white"/>
<stop offset="1" stop-color="white" stop-opacity="0"/>
</linearGradient>
<clipPath id="clip0_416_41026">
<rect width="450" height="530" fill="white"/>
</clipPath>
</defs>
</svg>
