<svg width="104" height="40" viewBox="0 0 104 40" fill="none" xmlns="http://www.w3.org/2000/svg">
<rect x="64.5" y="0.5" width="39" height="39" rx="19.5" fill="white"/>
<g clip-path="url(#clip0_169_6253)">
<path d="M80.6812 14.1932C80.2072 14.6673 80.2072 15.3784 80.6812 15.8525L84.8294 20.0006L80.6812 24.1488C80.2072 24.6228 80.2072 25.3339 80.6812 25.808C81.1553 26.2821 81.8664 26.2821 82.3405 25.808L87.3183 20.8302C87.5553 20.5932 87.6738 20.3562 87.6738 20.0006C87.6738 19.6451 87.5553 19.408 87.3183 19.171L82.3405 14.1932C81.8664 13.7191 81.1553 13.7191 80.6812 14.1932Z" fill="#2D2D31"/>
</g>
<rect x="64.5" y="0.5" width="39" height="39" rx="19.5" stroke="white"/>
<g opacity="0.3">
<rect width="40" height="40" rx="20" transform="matrix(-1 0 0 1 40 0)" fill="white"/>
<g clip-path="url(#clip1_169_6253)">
<path d="M23.3188 14.1932C23.7928 14.6673 23.7928 15.3784 23.3188 15.8525L19.1706 20.0006L23.3188 24.1488C23.7928 24.6228 23.7928 25.3339 23.3188 25.808C22.8447 26.2821 22.1336 26.2821 21.6595 25.808L16.6817 20.8302C16.4447 20.5932 16.3262 20.3562 16.3262 20.0006C16.3262 19.6451 16.4447 19.408 16.6817 19.171L21.6595 14.1932C22.1336 13.7191 22.8447 13.7191 23.3188 14.1932Z" fill="#2D2D31"/>
</g>
</g>
<defs>
<clipPath id="clip0_169_6253">
<rect width="22.7556" height="22.7556" fill="white" transform="translate(72.6216 31.3784) rotate(-90)"/>
</clipPath>
<clipPath id="clip1_169_6253">
<rect width="22.7556" height="22.7556" fill="white" transform="matrix(0 -1 -1 0 31.3784 31.3784)"/>
</clipPath>
</defs>
</svg>
