<svg width="24" height="18" viewBox="0 0 24 18" fill="none" xmlns="http://www.w3.org/2000/svg">
<path d="M17.25 5.4V4.875C17.25 2.52187 13.7063 0.75 9 0.75C4.29375 0.75 0.75 2.52187 0.75 4.875V8.625C0.75 10.5844 3.20625 12.1406 6.75 12.6094V13.125C6.75 15.4781 10.2937 17.25 15 17.25C19.7062 17.25 23.25 15.4781 23.25 13.125V9.375C23.25 7.43437 20.8687 5.87812 17.25 5.4ZM6.75 11.0812V8.85938C7.49613 8.95526 8.24774 9.00224 9 9C9.75226 9.00224 10.5039 8.95526 11.25 8.85938V11.0812C10.5057 11.1972 9.75329 11.2537 9 11.25C8.24671 11.2537 7.49432 11.1972 6.75 11.0812ZM15.75 7.30313V8.625C15.75 9.4125 14.5875 10.2562 12.75 10.7719V8.57812C13.9594 8.2875 14.9812 7.84688 15.75 7.30313ZM2.25 8.625V7.30313C3.01875 7.84688 4.04063 8.2875 5.25 8.57812V10.7719C3.4125 10.2562 2.25 9.4125 2.25 8.625ZM8.25 13.125V12.7313L9 12.75C9.36875 12.75 9.725 12.7406 10.0688 12.7219C10.4438 12.8531 10.8375 12.9656 11.25 13.0687V15.2719C9.4125 14.7562 8.25 13.9125 8.25 13.125ZM12.75 15.5812V13.35C13.496 13.4479 14.2476 13.498 15 13.5C15.7523 13.5022 16.5039 13.4553 17.25 13.3594V15.5812C15.7584 15.8062 14.2416 15.8062 12.75 15.5812ZM18.75 15.2719V13.0781C19.9594 12.7875 20.9813 12.3469 21.75 11.8031V13.125C21.75 13.9125 20.5875 14.7562 18.75 15.2719Z" fill="white"/>
</svg>
