<svg width="16" height="16" viewBox="0 0 16 16" fill="none" xmlns="http://www.w3.org/2000/svg">
<g clip-path="url(#clip0_1113_13378)">
<path d="M14.875 2.38128C14.875 2.38128 13.6138 3.12628 12.9125 3.33753C12.5361 2.90473 12.0358 2.59797 11.4794 2.45874C10.923 2.31951 10.3372 2.35453 9.8013 2.55907C9.26542 2.7636 8.80528 3.12779 8.48311 3.60236C8.16095 4.07693 7.99231 4.63899 8 5.21253V5.83753C6.90165 5.86602 5.8133 5.62242 4.83188 5.12844C3.85046 4.63446 3.00645 3.90543 2.375 3.00628C2.375 3.00628 -0.125 8.63128 5.5 11.1313C4.21283 12.005 2.67947 12.4431 1.125 12.3813C6.75 15.5063 13.625 12.3813 13.625 5.19379C13.625 5.02004 13.6075 4.84628 13.575 4.67503C14.2125 4.04628 14.875 2.38128 14.875 2.38128Z" stroke="white" stroke-width="1.125" stroke-linecap="round" stroke-linejoin="round"/>
</g>
<defs>
<clipPath id="clip0_1113_13378">
<rect width="15" height="15" fill="white" transform="translate(0.5 0.5)"/>
</clipPath>
</defs>
</svg>
