<svg width="150" height="187" viewBox="0 0 150 187" fill="none" xmlns="http://www.w3.org/2000/svg">
<g filter="url(#filter0_dd_2034_2476)">
<circle cx="56.5" cy="93.5" r="76.5" fill="#202023"/>
</g>
<path d="M40.844 79.96C40.844 80.472 40.908 81.24 40.972 82.264L50.188 83.032C49.996 82.328 49.932 81.496 49.932 80.664C49.932 76.568 52.172 73.816 56.268 73.816C60.3 73.816 62.54 75.928 62.54 79.064C62.54 81.944 61.004 83.224 57.74 85.08C54.732 86.872 53.004 88.024 51.66 90.904C51.02 92.312 50.7 94.104 50.7 96.344V97.496H60.108V96.344C60.108 93.976 61.516 92.76 64.588 90.712C67.724 88.664 69.58 87.256 71.052 84.184C71.756 82.584 72.14 80.664 72.14 78.424C72.14 72.536 67.916 65.24 56.716 65.24C45.132 65.24 40.844 72.408 40.844 79.96ZM55.564 100.568C52.428 100.568 49.996 102.936 49.996 105.944C49.996 109.08 52.428 111.512 55.564 111.512C58.444 111.512 60.876 109.016 60.876 105.944C60.876 103.064 58.444 100.568 55.564 100.568Z" fill="white"/>
<path d="M39.6611 118.8L43.9331 125.6V130H45.4531V125.6L49.7411 118.8H47.9971L44.7011 124.064L41.3891 118.8H39.6611ZM52.3565 122.048C50.0045 122.048 48.3405 123.872 48.3405 126.16C48.3405 128.464 50.0045 130.24 52.3565 130.24C54.6925 130.24 56.3245 128.464 56.3245 126.16C56.3245 123.872 54.6765 122.048 52.3565 122.048ZM52.3405 128.784C50.9165 128.784 49.8605 127.648 49.8605 126.16C49.8605 124.64 50.9165 123.504 52.3405 123.504C53.7805 123.504 54.8045 124.64 54.8045 126.16C54.8045 126.912 54.5645 127.552 54.1005 128.048C53.6365 128.544 53.0605 128.784 52.3405 128.784ZM64.4594 122.288H62.9394V126.448C62.9394 127.936 62.1714 128.864 60.9554 128.864C59.8674 128.864 59.3234 128.24 59.3234 126.976V122.288H57.8034V127.28C57.8034 129.12 58.8114 130.24 60.4914 130.24C61.5634 130.24 62.3794 129.808 62.9394 129.104V130H64.4594V122.288ZM66.3819 130H67.9019V125.68C67.9019 124.272 68.5419 123.456 69.5019 123.456C70.2859 123.456 70.7499 123.984 70.7499 125.008C70.7499 125.184 70.7499 125.312 70.7339 125.392L72.2699 125.168C72.3499 123.12 71.4059 122.048 69.9179 122.048C69.0379 122.048 68.3659 122.384 67.9019 123.072V122.288H66.3819V130ZM27.2048 147H28.7248V142.376H32.0048C34.1648 142.376 35.4448 141.048 35.4448 139.08C35.4448 137.192 34.1488 135.8 32.0048 135.8H27.2048V147ZM28.7248 140.904V137.256H31.9408C33.2208 137.256 33.9248 137.944 33.9248 139.08C33.9248 140.216 33.2208 140.904 31.9408 140.904H28.7248ZM36.9209 147H38.4409V142.68C38.4409 141.272 39.0809 140.456 40.0409 140.456C40.8249 140.456 41.2889 140.984 41.2889 142.008C41.2889 142.184 41.2889 142.312 41.2729 142.392L42.8089 142.168C42.8889 140.12 41.9449 139.048 40.4569 139.048C39.5769 139.048 38.9049 139.384 38.4409 140.072V139.288H36.9209V147ZM47.6768 139.048C45.3248 139.048 43.6608 140.872 43.6608 143.16C43.6608 145.464 45.3248 147.24 47.6768 147.24C50.0128 147.24 51.6448 145.464 51.6448 143.16C51.6448 140.872 49.9968 139.048 47.6768 139.048ZM47.6608 145.784C46.2368 145.784 45.1808 144.648 45.1808 143.16C45.1808 141.64 46.2368 140.504 47.6608 140.504C49.1008 140.504 50.1248 141.64 50.1248 143.16C50.1248 143.912 49.8848 144.552 49.4208 145.048C48.9568 145.544 48.3808 145.784 47.6608 145.784ZM52.4517 140.632H53.8597V144.312C53.8597 146.12 54.9797 147.24 56.8197 147.24C58.4197 147.24 59.6517 146.04 59.5557 144.2L58.0997 144.056C58.1637 145.144 57.6517 145.848 56.7717 145.848C55.8917 145.848 55.3797 145.32 55.3797 144.344V140.632H59.2837V139.288H55.3797V136.984H53.8597V139.288H52.4517V140.632ZM64.4424 139.048C62.0904 139.048 60.4264 140.872 60.4264 143.16C60.4264 145.464 62.0904 147.24 64.4424 147.24C66.7784 147.24 68.4104 145.464 68.4104 143.16C68.4104 140.872 66.7624 139.048 64.4424 139.048ZM64.4264 145.784C63.0024 145.784 61.9464 144.648 61.9464 143.16C61.9464 141.64 63.0024 140.504 64.4264 140.504C65.8664 140.504 66.8904 141.64 66.8904 143.16C66.8904 143.912 66.6504 144.552 66.1864 145.048C65.7224 145.544 65.1464 145.784 64.4264 145.784ZM73.3133 139.048C71.0253 139.048 69.4733 140.824 69.4733 143.16C69.4733 145.512 71.0733 147.24 73.4253 147.24C75.3133 147.24 76.8653 145.96 77.0573 144.2L75.6173 143.848C75.5053 145 74.5613 145.784 73.3933 145.784C71.9693 145.784 70.9933 144.68 70.9933 143.032C70.9933 141.64 71.9533 140.504 73.3133 140.504C74.3853 140.504 75.1373 141.144 75.2813 142.104L76.6733 141.64C76.3373 140.056 75.0573 139.048 73.3133 139.048ZM81.9424 139.048C79.5904 139.048 77.9264 140.872 77.9264 143.16C77.9264 145.464 79.5904 147.24 81.9424 147.24C84.2784 147.24 85.9104 145.464 85.9104 143.16C85.9104 140.872 84.2624 139.048 81.9424 139.048ZM81.9264 145.784C80.5024 145.784 79.4464 144.648 79.4464 143.16C79.4464 141.64 80.5024 140.504 81.9264 140.504C83.3664 140.504 84.3904 141.64 84.3904 143.16C84.3904 143.912 84.1504 144.552 83.6864 145.048C83.2224 145.544 82.6464 145.784 81.9264 145.784ZM87.4053 147H88.9253V135.8H87.4053V147Z" fill="#676771"/>
<defs>
<filter id="filter0_dd_2034_2476" x="-37" y="0" width="187" height="187" filterUnits="userSpaceOnUse" color-interpolation-filters="sRGB">
<feFlood flood-opacity="0" result="BackgroundImageFix"/>
<feColorMatrix in="SourceAlpha" type="matrix" values="0 0 0 0 0 0 0 0 0 0 0 0 0 0 0 0 0 0 127 0" result="hardAlpha"/>
<feMorphology radius="9" operator="dilate" in="SourceAlpha" result="effect1_dropShadow_2034_2476"/>
<feOffset/>
<feGaussianBlur stdDeviation="4"/>
<feComposite in2="hardAlpha" operator="out"/>
<feColorMatrix type="matrix" values="0 0 0 0 0 0 0 0 0 0 0 0 0 0 0 0 0 0 0.25 0"/>
<feBlend mode="normal" in2="BackgroundImageFix" result="effect1_dropShadow_2034_2476"/>
<feColorMatrix in="SourceAlpha" type="matrix" values="0 0 0 0 0 0 0 0 0 0 0 0 0 0 0 0 0 0 127 0" result="hardAlpha"/>
<feMorphology radius="9" operator="dilate" in="SourceAlpha" result="effect2_dropShadow_2034_2476"/>
<feOffset/>
<feGaussianBlur stdDeviation="4"/>
<feComposite in2="hardAlpha" operator="out"/>
<feColorMatrix type="matrix" values="0 0 0 0 0 0 0 0 0 0 0 0 0 0 0 0 0 0 0.25 0"/>
<feBlend mode="normal" in2="effect1_dropShadow_2034_2476" result="effect2_dropShadow_2034_2476"/>
<feBlend mode="normal" in="SourceGraphic" in2="effect2_dropShadow_2034_2476" result="shape"/>
</filter>
</defs>
</svg>
